<svg xmlns="http://www.w3.org/2000/svg" viewBox="0 0 26 26">
  <defs>
    <style>
      .cls-1 {
        fill: #5391ae;
      }

      .cls-2 {
        fill: #fff;
      }
    </style>
  </defs>
  <g id="Layer_2" data-name="Layer 2">
    <circle class="cls-1" cx="13" cy="13" r="10"/>
  </g>
  <g id="Layer_1" data-name="Layer 1">
    <path class="cls-2" d="M17.04428,6.94342a2.02147,2.02147,0,0,1,.49737.0621l-.75933.75933.307,1.14581,1.14581.307.75932-.75933a2.01322,2.01322,0,0,1-2.48282,2.4379l-.83764.83764L11.73388,15.674l-.83764.83764a2.01321,2.01321,0,0,1-2.43789,2.48283l.75933-.75933-.307-1.14581-1.14581-.307-.75932.75933a2.01322,2.01322,0,0,1,2.48282-2.4379l2.48616-2.48616,1.28807-1.28807,1.84118-1.84118a2.01238,2.01238,0,0,1,1.94052-2.54493m0-1a3.01155,3.01155,0,0,0-3.00611,3.1963l-1.4827,1.4827L11.2674,11.91049,9.14,14.03792q-.092-.00563-.18446-.00564a2.99236,2.99236,0,0,0-2.12994.8822,3.02771,3.02771,0,0,0-.78927,2.87333,1,1,0,0,0,1.67634.461l.35107-.35108.03045.00816.00816.03045-.35108.35108a1,1,0,0,0,.461,1.67634,3.02258,3.02258,0,0,0,.74351.09287,3.01156,3.01156,0,0,0,3.00611-3.1963l.47916-.47916L16.38112,12.441l.4789-.4789q.09207.00563.18453.00563a2.99242,2.99242,0,0,0,2.12988-.8822,3.02771,3.02771,0,0,0,.78927-2.87333,1,1,0,0,0-1.67634-.46095l-.35107.35108-.03045-.00816-.00816-.03045.35108-.35108a1,1,0,0,0-.461-1.67634,3.02258,3.02258,0,0,0-.74351-.09287Z"/>
  </g>
</svg>
