<svg xmlns="http://www.w3.org/2000/svg" viewBox="0 0 26 26">
  <defs>
    <style>
      .cls-1 {
        fill: #4990a0;
      }

      .cls-2, .cls-3 {
        fill: none;
        stroke: #fff;
        stroke-linecap: round;
        stroke-linejoin: round;
      }

      .cls-3 {
        stroke-width: 0.84165px;
      }
    </style>
  </defs>
  <g id="Layer_2" data-name="Layer 2">
    <circle class="cls-1" cx="13" cy="13" r="10"/>
  </g>
  <g id="Layer_1" data-name="Layer 1">
    <path class="cls-2" d="M16.0775,8.594a.75946.75946,0,0,1-.75946-.75945V5.8924H8.6826a.75946.75946,0,0,0-.75946.75945v12.6963a.75946.75946,0,0,0,.75946.75945h8.63479a.75946.75946,0,0,0,.75947-.75945V8.594Z"/>
    <line class="cls-3" x1="10.09457" y1="17.55799" x2="15.94087" y2="17.55799"/>
    <g>
      <path class="cls-2" d="M18.07686,8.594V19.34815a.75946.75946,0,0,1-.75946.75945H8.6826a.75946.75946,0,0,1-.75946-.75945V6.65185A.75946.75946,0,0,1,8.6826,5.8924h6.63682Z"/>
      <path class="cls-2" d="M16.0775,8.594a.75946.75946,0,0,1-.75946-.75945V5.8924H8.6826a.75946.75946,0,0,0-.75946.75945v12.6963a.75946.75946,0,0,0,.75946.75945h8.63479a.75946.75946,0,0,0,.75947-.75945V8.594Z"/>
    </g>
    <line class="cls-3" x1="10.09457" y1="11.35929" x2="15.94087" y2="11.35929"/>
    <line class="cls-3" x1="10.09457" y1="13.42552" x2="15.94087" y2="13.42552"/>
    <line class="cls-3" x1="10.09457" y1="15.49175" x2="15.94087" y2="15.49175"/>
  </g>
</svg>
