<svg xmlns="http://www.w3.org/2000/svg" viewBox="0 0 26 26"><defs><style>.cls-1{fill:#e76c32;}.cls-2,.cls-3{fill:none;stroke:#fff;stroke-width:0.53575px;}.cls-2{stroke-miterlimit:10;}</style></defs><g id="Layer_2" data-name="Layer 2"><circle class="cls-1" cx="13" cy="13" r="10"/></g><g id="Layer_1" data-name="Layer 1"><path class="cls-2" d="M19.12252,17.13753a1.62309,1.62309,0,0,1-1.48645.6471H8.36429a1.62339,1.62339,0,0,1-1.48691-.64741,1.62078,1.62078,0,0,1,.16437-1.611L11.73857,7.1766a1.57281,1.57281,0,0,1,1.26176-.96243,1.57232,1.57232,0,0,1,1.26145.96258l4.69591,8.34957A1.61944,1.61944,0,0,1,19.12252,17.13753Z"/><path class="cls-3" d="M12.249,15.5975a.751.751,0,1,1,.751.751A.752.752,0,0,1,12.249,15.5975ZM12.3068,9.917A.64229.64229,0,0,1,13,9.26234a.653.653,0,0,1,.69318.65468v3.70677A.653.653,0,0,1,13,14.27848a.64228.64228,0,0,1-.69322-.65469Z"/></g></svg>