<svg xmlns="http://www.w3.org/2000/svg" viewBox="0 0 26 26"><defs><style>.cls-1{fill:#5391ae;}.cls-2{fill:#fff;}</style></defs><g id="Layer_2" data-name="Layer 2"><circle class="cls-1" cx="13" cy="13" r="10"/></g><g id="Layer_1" data-name="Layer 1"><path class="cls-2" d="M17.04428,6.94342a2.02147,2.02147,0,0,1,.49737.0621l-.75933.75933.307,1.14581,1.14581.307.75932-.75933a2.01322,2.01322,0,0,1-2.48282,2.4379l-.83764.83764L11.73388,15.674l-.83764.83764a2.01321,2.01321,0,0,1-2.43789,2.48283l.75933-.75933-.307-1.14581-1.14581-.307-.75932.75933a2.01322,2.01322,0,0,1,2.48282-2.4379l2.48616-2.48616,1.28807-1.28807,1.84118-1.84118a2.01238,2.01238,0,0,1,1.94052-2.54493m0-.54a2.552,2.552,0,0,0-2.52712,2.90785l-1.63642,1.63642-1.28807,1.28807L9.31133,14.5171a2.56505,2.56505,0,0,0-.35585-.02482,2.53535,2.53535,0,0,0-1.80464.74747,2.56559,2.56559,0,0,0-.66869,2.43483.54.54,0,0,0,.90522.24892l.53887-.53888.54351.14563.14564.54351-.53888.53888a.54.54,0,0,0,.24892.90523,2.56272,2.56272,0,0,0,.63029.07871,2.552,2.552,0,0,0,2.52712-2.90785l.63288-.63288,3.94013-3.94013.63282-.63282a2.56251,2.56251,0,0,0,.35588.02482,2.53542,2.53542,0,0,0,1.80461-.74747,2.56559,2.56559,0,0,0,.66869-2.43483.54.54,0,0,0-.90522-.24892l-.53887.53888-.54351-.14563-.14564-.54351.53888-.53888a.54.54,0,0,0-.24892-.90523,2.56272,2.56272,0,0,0-.63029-.07871Z"/></g></svg>