<svg xmlns="http://www.w3.org/2000/svg" viewBox="0 0 26 26"><defs><style>.cls-1{fill:#ffce00;}.cls-2{fill:none;stroke:#fff;stroke-linecap:round;stroke-linejoin:round;stroke-width:0.4px;}</style></defs><g id="Layer_2" data-name="Layer 2"><circle class="cls-1" cx="13" cy="13" r="10"/></g><g id="Layer_1" data-name="Layer 1"><path class="cls-2" d="M16.0775,8.594a.75946.75946,0,0,1-.75946-.75945V5.8924H8.6826a.75946.75946,0,0,0-.75946.75945v12.6963a.75946.75946,0,0,0,.75946.75945h8.63479a.75946.75946,0,0,0,.75947-.75945V8.594Z"/><line class="cls-2" x1="9.5039" y1="12.27165" x2="16.53155" y2="12.27165"/><line class="cls-2" x1="9.5039" y1="13.72836" x2="14.74805" y2="13.72836"/><line class="cls-2" x1="9.5039" y1="15.18506" x2="16.53155" y2="15.18506"/><line class="cls-2" x1="9.5039" y1="12.27165" x2="14.74805" y2="12.27165"/><line class="cls-2" x1="11.10628" y1="16.64177" x2="16.53155" y2="16.64177"/><line class="cls-2" x1="9.5039" y1="18.09848" x2="16.53155" y2="18.09848"/><path class="cls-2" d="M18.07686,8.594V19.34815a.75946.75946,0,0,1-.75946.75945H8.6826a.75946.75946,0,0,1-.75946-.75945V6.65185A.75946.75946,0,0,1,8.6826,5.8924h6.63682Z"/><path class="cls-2" d="M16.0775,8.594a.75946.75946,0,0,1-.75946-.75945V5.8924H8.6826a.75946.75946,0,0,0-.75946.75945v12.6963a.75946.75946,0,0,0,.75946.75945h8.63479a.75946.75946,0,0,0,.75947-.75945V8.594Z"/><line class="cls-2" x1="9.5039" y1="12.27165" x2="14.74805" y2="12.27165"/><line class="cls-2" x1="9.5039" y1="10.81879" x2="16.53155" y2="10.81879"/><line class="cls-2" x1="9.5039" y1="13.72836" x2="16.53155" y2="13.72836"/><line class="cls-2" x1="9.5039" y1="15.18506" x2="16.53155" y2="15.18506"/><line class="cls-2" x1="9.5039" y1="16.64177" x2="16.53155" y2="16.64177"/><line class="cls-2" x1="9.5039" y1="18.09848" x2="16.53155" y2="18.09848"/></g></svg>