<svg xmlns="http://www.w3.org/2000/svg" viewBox="0 0 26 26">
  <defs>
    <style>
      .cls-1 {
        fill: #2ba396;
      }

      .cls-2, .cls-3 {
        fill: #fff;
      }

      .cls-2 {
        stroke: #fff;
        stroke-miterlimit: 10;
        stroke-width: 0.5px;
      }
    </style>
  </defs>
  <g id="Layer_2" data-name="Layer 2">
    <circle class="cls-1" cx="13" cy="13" r="10"/>
  </g>
  <g id="Layer_1" data-name="Layer 1">
    <g>
      <path class="cls-2" d="M10.39859,12.40514a2.86841,2.86841,0,0,1,.604-.88585,20.17086,20.17086,0,0,0,1.8925-3.34208,2.23413,2.23413,0,0,0,.08054-.76505c0-.52346,0-1.208.76505-1.08719,2.17437.40266,1.65091,2.21463,1.08718,3.785-.16106.52346-.28186.64426-.20133.92612,1.04692-.16107,2.416-.52346,3.42261.04026a1.2719,1.2719,0,0,1,.64426,1.65091,1.49808,1.49808,0,0,1-.08053,2.05357,1.49419,1.49419,0,0,1-.44293,1.73144,1.71024,1.71024,0,0,1-.76505,1.73143c-.52346.28187-6.44256.08054-7.08682,0a1.13326,1.13326,0,0,1-.84559.40266H8.06316a1.15226,1.15226,0,0,1-1.12745-1.12744V13.0494A1.12548,1.12548,0,0,1,8.06316,11.922H9.47247A1.182,1.182,0,0,1,10.39859,12.40514Zm-.92612.04027H8.06316a.585.585,0,0,0-.56372.604v4.46953a.55046.55046,0,0,0,.56372.56372H9.47247a.585.585,0,0,0,.604-.56372V13.0494A.61927.61927,0,0,0,9.47247,12.44541Zm1.85224-.48319a3.2294,3.2294,0,0,0-.68452,1.40931v4.34873c.88585.12079,5.9191.36239,6.52309.04026.56373-.24159.48319-1.208.48319-1.32878a.27386.27386,0,0,1,.16107-.32212.97411.97411,0,0,0,.24159-1.208.25563.25563,0,0,1,.1208-.44293c.40266-.1208.52346-1.08718.04027-1.44958a.26225.26225,0,0,1-.08053-.36239.76744.76744,0,0,0-.3624-1.12745c-.88585-.48319-2.77835,0-2.97968.04027-.44293.16106-.68453-.28187-.72479-.64426a3.52862,3.52862,0,0,1,.28186-1.00665c.40266-1.08718,1.00665-2.77836-.68452-3.06022-.20133-.04026-.16107.48319-.16107.604a2.44965,2.44965,0,0,1-.12079.92612A17.30367,17.30367,0,0,1,11.32471,11.96222Z"/>
      <circle class="cls-3" cx="8.71628" cy="13.69081" r="0.40266"/>
    </g>
  </g>
</svg>
