<svg xmlns="http://www.w3.org/2000/svg" viewBox="0 0 26 26">
  <defs>
    <style>
      .cls-1 {
        fill: #c64944;
      }

      .cls-2, .cls-3 {
        fill: #f9f9f9;
      }

      .cls-2 {
        stroke: #f9f9f9;
        stroke-width: 0.5px;
      }
    </style>
  </defs>
  <g id="Layer_2" data-name="Layer 2">
    <circle class="cls-1" cx="13" cy="13" r="10"/>
  </g>
  <g id="Layer_1" data-name="Layer 1">
    <g>
      <path class="cls-2" d="M15.4192,18.5728a.432.432,0,0,1-.432-.432v-.6912c0-.72149.79359-.7776,1.0368-.7776a.21236.21236,0,0,0,.16985-.06193.30751.30751,0,0,0,.01818-.25642l-.00232-.00852a1.61831,1.61831,0,0,1,.17571-1.50736,3.99141,3.99141,0,0,0,.97926-2.56483,4.34752,4.34752,0,0,0-1.127-3.34623A4.49153,4.49153,0,0,0,13,7.4704,4.49153,4.49153,0,0,0,9.76236,8.92671a4.34752,4.34752,0,0,0-1.127,3.34623,3.99141,3.99141,0,0,0,.97926,2.56483,1.61831,1.61831,0,0,1,.17571,1.50736l-.00232.00852a.30751.30751,0,0,0,.01818.25642A.21236.21236,0,0,0,9.976,16.672c.24321,0,1.0368.05611,1.0368.7776v.6912a.432.432,0,0,1-.864,0v-.59324A1.08763,1.08763,0,0,0,9.976,17.536a1.0468,1.0468,0,0,1-.85645-.40146,1.14734,1.14734,0,0,1-.16512-1.00819l.00236-.00869c.05193-.19018.14854-.54414-.00177-.72183a4.81674,4.81674,0,0,1-1.18074-3.05117,5.20232,5.20232,0,0,1,1.35227-4.003A5.36945,5.36945,0,0,1,13,6.6064a5.36945,5.36945,0,0,1,3.87345,1.73526,5.20232,5.20232,0,0,1,1.35227,4.003A4.81674,4.81674,0,0,1,17.045,15.39583c-.15031.17769-.0537.53165-.00177.72183l.00236.00869a1.14734,1.14734,0,0,1-.16512,1.00819,1.0468,1.0468,0,0,1-.85645.40146,1.08763,1.08763,0,0,0-.1728.01156v.59324A.432.432,0,0,1,15.4192,18.5728Zm.36391-1.00778Zm-5.56622,0Z"/>
      <g>
        <path class="cls-2" d="M12.1792,19.3936a.432.432,0,0,1-.432-.432V17.5792a.432.432,0,0,1,.864,0v1.3824A.432.432,0,0,1,12.1792,19.3936Z"/>
        <path class="cls-2" d="M13.8208,19.3936a.432.432,0,0,1-.432-.432V17.5792a.432.432,0,0,1,.864,0v1.3824A.432.432,0,0,1,13.8208,19.3936Z"/>
      </g>
      <g>
        <circle class="cls-3" cx="11.056" cy="13.0864" r="1.2096"/>
        <circle class="cls-3" cx="14.944" cy="13.0864" r="1.2096"/>
      </g>
      <path class="cls-2" d="M13.23265,14.56826l.56016,1.07162a.26251.26251,0,0,1-.23265.38412H12.43984a.26251.26251,0,0,1-.23265-.38412l.56016-1.07162A.26252.26252,0,0,1,13.23265,14.56826Z"/>
    </g>
  </g>
</svg>
