<svg id="Layer_1" data-name="Layer 1" xmlns="http://www.w3.org/2000/svg" viewBox="0 0 45 45">
  <defs>
    <style>
      .cls-1, .cls-2 {
        fill: #525779;
        stroke: #525779;
        stroke-miterlimit: 10;
      }

      .cls-1 {
        stroke-width: 0.75541px;
      }

      .cls-2 {
        stroke-width: 1.51082px;
      }
    </style>
  </defs>
  <g>
    <path class="cls-1" d="M19.91012,12.91745H15.93a6.76483,6.76483,0,0,0-6.30532,4.36913l-2.80742,7.4863a5.87551,5.87551,0,0,0-.3745,2.06827,5.24155,5.24155,0,0,0,9.60275,2.9074l.5159-.77386H28.43859l.5159.77386a5.24155,5.24155,0,0,0,9.60275-2.9074,5.86455,5.86455,0,0,0-.375-2.06827L35.3748,17.28709A6.76388,6.76388,0,0,0,29.07,12.91745H19.91012ZM33.31585,31.0466a4.19816,4.19816,0,0,1-3.49945-1.87249l-.82358-1.23537H16.00718l-.82358,1.23537a4.20573,4.20573,0,0,1-7.70489-2.333A4.83314,4.83314,0,0,1,7.78794,25.137l2.80743-7.48681A5.7229,5.7229,0,0,1,15.93,13.9534H29.07a5.72332,5.72332,0,0,1,5.33515,3.69731l2.80743,7.4863a4.84432,4.84432,0,0,1,.30871,1.70414A4.21077,4.21077,0,0,1,33.31585,31.0466Z"/>
    <path class="cls-2" d="M15.76632,18.7088a3.26325,3.26325,0,1,0,3.26324,3.26325A3.26677,3.26677,0,0,0,15.76632,18.7088Zm0,5.80133a2.53808,2.53808,0,1,1,2.53808-2.53808A2.54134,2.54134,0,0,1,15.76632,24.51013Z"/>
    <path class="cls-2" d="M29.23368,18.7088a3.26325,3.26325,0,1,0,3.26325,3.26325A3.26676,3.26676,0,0,0,29.23368,18.7088Zm0,5.80133a2.53808,2.53808,0,1,1,2.53808-2.53808A2.54134,2.54134,0,0,1,29.23368,24.51013Z"/>
  </g>
</svg>
