<svg width="45" height="45" viewBox="0 0 45 45" fill="none" xmlns="http://www.w3.org/2000/svg">
<path d="M19.2279 14.4191H14.2014C12.4715 14.4244 10.7841 14.951 9.3622 15.9291C7.94032 16.9072 6.85104 18.2908 6.23844 19.8969L2.69296 29.2829C2.37958 30.112 2.21937 30.9905 2.22 31.876C2.22004 33.2864 2.67715 34.6594 3.52378 35.792C4.3704 36.9247 5.56161 37.7568 6.92135 38.1655C8.28108 38.5742 9.73719 38.5378 11.0745 38.0616C12.4117 37.5854 13.5592 36.6947 14.3473 35.5212L14.9988 34.551H29.9984L30.65 35.5212C31.438 36.6947 32.5855 37.5854 33.9228 38.0616C35.2601 38.5378 36.7162 38.5742 38.0759 38.1655C39.4356 37.7568 40.6268 36.9247 41.4735 35.792C42.3201 34.6594 42.7772 33.2864 42.7772 31.876C42.778 30.9904 42.6175 30.1119 42.3037 29.2829L38.7582 19.8975C38.1458 18.2914 37.0567 16.9076 35.6349 15.9294C34.2132 14.9511 32.5257 14.4244 30.7958 14.4191H19.2279ZM36.1579 37.1486C35.2834 37.1495 34.4222 36.9357 33.6511 36.526C32.88 36.1164 32.2229 35.5238 31.7385 34.801L30.6984 33.2521H14.2989L13.2588 34.801C12.6264 35.7425 11.7057 36.4571 10.6327 36.8391C9.55973 37.2211 8.39142 37.2503 7.30045 36.9224C6.20948 36.5944 5.25372 35.9267 4.57444 35.018C3.89515 34.1092 3.52837 33.0076 3.5283 31.876C3.52783 31.1463 3.66013 30.4225 3.91883 29.7394L7.46432 20.3528C7.98248 18.9939 8.90403 17.8231 10.107 16.9955C11.31 16.1679 12.7378 15.7224 14.2014 15.7179H30.7958C32.2596 15.7224 33.6876 16.1679 34.8907 16.9957C36.0938 17.8234 37.0154 18.9943 37.5336 20.3534L41.0791 29.7394C41.3373 30.4226 41.4693 31.1464 41.4689 31.876C41.4672 33.2739 40.907 34.614 39.9114 35.6024C38.9158 36.5908 37.5659 37.1469 36.1579 37.1486V37.1486Z" fill="#525779" stroke="#525779" stroke-width="0.75541" stroke-miterlimit="10"/>
<path d="M13.9947 21.68C13.1796 21.68 12.3828 21.92 11.7051 22.3695C11.0274 22.8191 10.4992 23.4581 10.1872 24.2057C9.87531 24.9533 9.7937 25.7759 9.95271 26.5695C10.1117 27.3632 10.5042 28.0922 11.0806 28.6644C11.6569 29.2365 12.3912 29.6262 13.1907 29.7841C13.9901 29.9419 14.8187 29.8609 15.5718 29.5512C16.3248 29.2416 16.9684 28.7172 17.4213 28.0444C17.8741 27.3716 18.1158 26.5805 18.1158 25.7714C18.1146 24.6866 17.6801 23.6467 16.9075 22.8796C16.1349 22.1126 15.0873 21.6812 13.9947 21.68V21.68ZM13.9947 28.9535C13.3607 28.9535 12.741 28.7669 12.2139 28.4172C11.6868 28.0675 11.276 27.5706 11.0333 26.9891C10.7907 26.4076 10.7273 25.7678 10.8509 25.1505C10.9746 24.5333 11.2799 23.9663 11.7282 23.5212C12.1764 23.0762 12.7476 22.7731 13.3694 22.6504C13.9911 22.5276 14.6356 22.5906 15.2213 22.8314C15.807 23.0723 16.3076 23.4801 16.6598 24.0034C17.012 24.5267 17.2 25.142 17.2 25.7714C17.1989 26.615 16.8609 27.4237 16.26 28.0203C15.6591 28.6168 14.8445 28.9524 13.9947 28.9535Z" fill="#525779" stroke="#525779" stroke-width="1.51082" stroke-miterlimit="10"/>
<path d="M31.0026 21.68C30.1875 21.68 29.3907 21.92 28.713 22.3695C28.0353 22.8191 27.507 23.4581 27.1951 24.2057C26.8832 24.9533 26.8016 25.7759 26.9606 26.5695C27.1196 27.3632 27.5121 28.0922 28.0885 28.6644C28.6648 29.2365 29.3991 29.6262 30.1986 29.7841C30.998 29.9419 31.8266 29.8609 32.5797 29.5512C33.3327 29.2416 33.9763 28.7172 34.4292 28.0444C34.882 27.3716 35.1237 26.5805 35.1237 25.7714C35.1225 24.6866 34.688 23.6467 33.9154 22.8796C33.1427 22.1126 32.0952 21.6812 31.0026 21.68V21.68ZM31.0026 28.9535C30.3686 28.9535 29.7489 28.7669 29.2218 28.4172C28.6947 28.0675 28.2838 27.5706 28.0412 26.9891C27.7986 26.4076 27.7351 25.7678 27.8588 25.1505C27.9825 24.5333 28.2878 23.9663 28.7361 23.5212C29.1843 23.0762 29.7555 22.7731 30.3772 22.6504C30.999 22.5276 31.6435 22.5906 32.2292 22.8314C32.8149 23.0723 33.3155 23.4801 33.6677 24.0034C34.0199 24.5267 34.2079 25.142 34.2079 25.7714C34.2068 26.615 33.8687 27.4237 33.2679 28.0203C32.667 28.6168 31.8523 28.9524 31.0026 28.9535Z" fill="#525779" stroke="#525779" stroke-width="1.51082" stroke-miterlimit="10"/>
<path d="M25.3694 12.6806C25.4387 12.6805 25.5073 12.6655 25.5702 12.6365C25.6331 12.6075 25.6889 12.5652 25.7337 12.5127C25.7785 12.4601 25.8113 12.3985 25.8297 12.3321C25.8481 12.2657 25.8517 12.1961 25.8403 12.1282C25.7087 11.3571 25.3064 10.6572 24.7047 10.1525C24.1029 9.64774 23.3406 9.37082 22.5529 9.37079C21.7651 9.37076 21.0028 9.64762 20.401 10.1523C19.7992 10.657 19.3968 11.3569 19.2652 12.128C19.2538 12.1959 19.2574 12.2655 19.2758 12.3319C19.2942 12.3982 19.327 12.4599 19.3718 12.5124C19.4166 12.565 19.4724 12.6072 19.5353 12.6362C19.5982 12.6652 19.6667 12.6803 19.7361 12.6804V12.6804C19.8507 12.6786 19.9609 12.6366 20.0471 12.5617C20.1334 12.4868 20.19 12.3839 20.207 12.2714C20.304 11.7237 20.5924 11.2275 21.0214 10.8699C21.4504 10.5124 21.9927 10.3164 22.5528 10.3164C23.113 10.3164 23.6552 10.5125 24.0842 10.8701C24.5132 11.2276 24.8015 11.7239 24.8985 12.2716C24.9154 12.3841 24.9721 12.487 25.0583 12.5619C25.1446 12.6368 25.2548 12.6788 25.3694 12.6806Z" fill="#525779" stroke="#525779" stroke-width="0.55" stroke-miterlimit="10"/>
<path d="M17.3411 12.7209H17.3427C17.4722 12.7207 17.5969 12.6727 17.6927 12.5863C17.7885 12.4998 17.8484 12.381 17.8609 12.2531C17.9778 11.0984 18.5227 10.0281 19.3896 9.24961C20.2566 8.47117 21.3839 8.04017 22.5529 8.04021C23.7218 8.04026 24.8491 8.47134 25.716 9.24985C26.5829 10.0284 27.1277 11.0988 27.2446 12.2535C27.257 12.3814 27.3169 12.5002 27.4127 12.5866C27.5085 12.6731 27.6332 12.7211 27.7627 12.7213H27.7643C27.8371 12.7215 27.9091 12.7067 27.9758 12.6778C28.0425 12.6488 28.1024 12.6064 28.1517 12.5532C28.2009 12.5 28.2385 12.4372 28.2619 12.3688C28.2854 12.3004 28.2942 12.2279 28.2878 12.1559C28.1464 10.7434 27.4812 9.43345 26.4214 8.48061C25.3615 7.52776 23.9827 7.00005 22.5529 7C21.1231 6.99995 19.7443 7.52755 18.6843 8.48031C17.6244 9.43308 16.9591 10.743 16.8176 12.1555C16.8112 12.2275 16.8201 12.3 16.8435 12.3684C16.8669 12.4368 16.9045 12.4996 16.9537 12.5528C17.003 12.606 17.0629 12.6484 17.1296 12.6774C17.1963 12.7063 17.2683 12.7211 17.3411 12.7209V12.7209Z" fill="#525779" stroke="#525779" stroke-width="0.605" stroke-miterlimit="10"/>
</svg>
