<svg id="Layer_1" data-name="Layer 1" xmlns="http://www.w3.org/2000/svg" viewBox="0 0 45 45">
  <defs>
    <style>
      .cls-1 {
        fill: #525779;
      }

      .cls-2 {
        fill: none;
        stroke: #525779;
        stroke-width: 1.5px;
      }
    </style>
  </defs>
  <path class="cls-1" d="M28.1627,23.87427a.75071.75071,0,0,0-1.06044-.03526l-.19.1782-.52162-.11875a4.43233,4.43233,0,0,0,.02982-.63284.74612.74612,0,0,0,.53939-.34552l1.09613-1.78723a.75044.75044,0,1,0-1.27955-.78448l-.75256,1.22707a4.3584,4.3584,0,0,0-.57451-.92511,2.31155,2.31155,0,0,0-.188-2.38216l.59716-1.1886a.75046.75046,0,0,0-1.34116-.67382l-.48914.974c-.05045-.01519-.10077-.03122-.15227-.043-.05157-.01171-.10355-.019-.15464-.02725l-.01874-1.08833a.75034.75034,0,1,0-1.50046.026l.02306,1.32917a2.30784,2.30784,0,0,0-1.20156,2.06737,4.3488,4.3488,0,0,0-.84714.52552L19.95264,18.756a.75055.75055,0,0,0-1.48269.23436l.3343,2.11351a.75138.75138,0,0,0,.23624.43423,4.29735,4.29735,0,0,0-.27053.62608l-.52106-.11861-.0938-.24189a.75035.75035,0,0,0-1.39948.54183l.23736.61395a.75018.75018,0,0,0,.53339.46085l1.00387.22858a4.987,4.987,0,0,0,.05463.74086l-.00425-.00007a.75061.75061,0,0,0-.59911.324l-1.21418,1.7597a.75037.75037,0,1,0,1.23529.85222L19,25.88046l.05109-.00118a4.22023,4.22023,0,0,0,2.29672,2.16257.741.741,0,0,0,.0853.025.7285.7285,0,0,0,.08711.01428,4.231,4.231,0,0,0,3.03374-.97633l.11638.05923.17143,1.67824a.75064.75064,0,0,0,1.4935-.15262L26.12244,26.605a.75064.75064,0,0,0-.40615-.59235l-.10453-.05324a4.86805,4.86805,0,0,0,.35186-.61855l1.00386.22851a.74994.74994,0,0,0,.679-.18391l.48113-.4504A.75029.75029,0,0,0,28.1627,23.87427ZM22.521,19.61576a.83645.83645,0,0,1,.00739-.10551l.00111-.00739a.82693.82693,0,0,1,.02028-.1014l.001-.00362a.83128.83128,0,0,1,.13457-.27827l.00494-.00655a.83886.83886,0,0,1,.30921-.25206l.003-.00139a.82823.82823,0,0,1,.28544-.07624l.03-.00153c.0131-.00063.02592-.002.03909-.002l.02809.0014.033.00167c.02606.00188.05164.00509.077.00927l.01909.00293a.82824.82824,0,0,1,.09945.02529l.013.00474q.03888.01327.07589.03011l.02007.008.02021.01143c.013.00676.02557.01415.03812.02153a.81229.81229,0,0,1,.16488.12642l.00613.00634a.8379.8379,0,0,1,.13353.17757l.01247.02313a.82606.82606,0,0,1,.07248.19638l.00717.03262c.0037.01951.00676.03909.009.05895.00223.01889.00328.03819.00425.05743.00042.01073.0023.02132.0023.032l-.00041.00635.00014.0023a.851.851,0,0,1-.00683.10216l-.00175.01129a.82954.82954,0,0,1-.01846.09429l-.00314.01219a.82954.82954,0,0,1-.07728.18942l-.00523.00857a.82038.82038,0,0,1-.04732.07254l-.01226.01638a.82346.82346,0,0,1-.05422.06411l-.008.00878a.83531.83531,0,0,1-.15352.1253l-.0062.00377a.83743.83743,0,0,1-.08014.044l-.00969.00467a.83279.83279,0,0,1-.08948.03582l-.0016.00056a.81948.81948,0,0,1-.09875.02606l-.00328.00056a.86082.86082,0,0,1-.08955.012l-.03115.00154c-.01275.00062-.02522.002-.03805.002l-.02913-.00147-.03219-.0016q-.041-.003-.08084-.00989l-.01526-.00237a.81732.81732,0,0,1-.10112-.02593l-.01136-.00411a.82111.82111,0,0,1-.07826-.03129l-.01958-.0078-.00014-.00168a.835.835,0,0,1-.46775-.74357l-.00063-.00035.00035-.00481Zm2.32878,4.40946a3.276,3.276,0,0,1-3.0819,2.57115,3.27511,3.27511,0,0,1-1.664-3.65125,2.84965,2.84965,0,0,1,1.42638-1.8765,2.32634,2.32634,0,0,0,2.846.64727A2.85136,2.85136,0,0,1,24.84979,24.02522Z"/>
  <path class="cls-2" d="M8.18673,35.91775a1.53921,1.53921,0,0,1-2.05827-.58895L3.0893,30.05727a1.54469,1.54469,0,0,1,.5202-2.07761l2.1069-1.29095a2.95465,2.95465,0,0,0,1.26872-2.26689L6.983,20.53755a2.95524,2.95524,0,0,0-1.27037-2.2669l-2.10695-1.291a1.54009,1.54009,0,0,1-.51944-2.07715l3.04241-5.2696a1.54353,1.54353,0,0,1,2.05858-.58873l2.1715,1.17918a2.959,2.959,0,0,0,2.59839-.03328l3.36492-1.94032a2.95093,2.95093,0,0,0,1.32882-2.23219l.06455-2.47011A1.54122,1.54122,0,0,1,19.2546,2.05815l6.08486-.00378a1.54268,1.54268,0,0,1,1.53918,1.488l.06457,2.47108A2.95768,2.95768,0,0,0,28.2719,8.24712l3.36455,1.94252a2.954,2.954,0,0,0,2.59872.03387l2.17231-1.17962a1.53921,1.53921,0,0,1,2.05827.589l3.03916,5.27153a1.54469,1.54469,0,0,1-.5202,2.07761L38.8778,18.27293a2.95468,2.95468,0,0,0-1.26872,2.26689l.0021,3.88427A2.95523,2.95523,0,0,0,38.88154,26.691l2.107,1.291a1.54008,1.54008,0,0,1,.51943,2.07715l-3.0424,5.2696a1.54353,1.54353,0,0,1-2.05858.58873l-2.17151-1.17918a2.95894,2.95894,0,0,0-2.59838.03329l-3.36492,1.94031a2.95093,2.95093,0,0,0-1.32882,2.23219l-.06455,2.4701a1.54122,1.54122,0,0,1-1.53916,1.48932l-6.08486.00378a1.54266,1.54266,0,0,1-1.53918-1.488L17.651,38.94814a2.95762,2.95762,0,0,0-1.32869-2.23362L12.95776,34.772a2.954,2.954,0,0,0-2.59873-.03387Zm8.06242-2.96159a12.09588,12.09588,0,1,0-4.4274-16.52328A12.09588,12.09588,0,0,0,16.24915,32.95616Z"/>
</svg>
