<svg width="45" height="45" viewBox="0 0 45 45" fill="none" xmlns="http://www.w3.org/2000/svg">
<path d="M27.8099 24.7729C27.6824 24.6384 27.506 24.5594 27.3195 24.5533C27.1331 24.5472 26.9518 24.6144 26.8155 24.7403L26.6373 24.9054L26.1482 24.7954C26.1716 24.6009 26.181 24.4049 26.1762 24.2091C26.2792 24.1962 26.3781 24.1608 26.4656 24.1054C26.5531 24.05 26.627 23.9761 26.6819 23.889L27.7098 22.2333C27.7583 22.1555 27.7908 22.0689 27.8055 21.9787C27.8201 21.8884 27.8166 21.7962 27.7951 21.7072C27.7736 21.6183 27.7346 21.5345 27.6802 21.4605C27.6259 21.3865 27.5573 21.3238 27.4784 21.276C27.3995 21.2282 27.3119 21.1963 27.2205 21.182C27.1291 21.1677 27.0357 21.1714 26.9458 21.1928C26.8558 21.2142 26.771 21.253 26.6962 21.3068C26.6215 21.3606 26.5581 21.4285 26.5099 21.5066L25.8043 22.6434C25.6617 22.3366 25.4807 22.0486 25.2656 21.7863C25.4424 21.4375 25.5195 21.0476 25.4885 20.6586C25.4574 20.2697 25.3194 19.8965 25.0893 19.5795L25.6493 18.4783C25.7328 18.3136 25.7467 18.1228 25.688 17.948C25.6293 17.7731 25.5027 17.6284 25.336 17.5457C25.1694 17.4629 24.9763 17.449 24.7992 17.5068C24.6222 17.5646 24.4756 17.6895 24.3917 17.8541L23.933 18.7564C23.8857 18.7423 23.8385 18.7275 23.7902 18.7166C23.7419 18.7057 23.6931 18.699 23.6452 18.6913L23.6276 17.6831C23.626 17.5918 23.6062 17.5017 23.5694 17.418C23.5326 17.3343 23.4794 17.2586 23.413 17.1952C23.3465 17.1317 23.2681 17.0819 23.1821 17.0484C23.0961 17.0149 23.0043 16.9985 22.912 17.0001C22.8196 17.0017 22.7284 17.0212 22.6437 17.0576C22.5589 17.094 22.4823 17.1465 22.4181 17.2122C22.3539 17.2778 22.3034 17.3553 22.2695 17.4403C22.2357 17.5252 22.219 17.6159 22.2206 17.7072L22.2423 18.9385C21.8953 19.1257 21.6069 19.4031 21.4083 19.7407C21.2097 20.0784 21.1084 20.4633 21.1156 20.8538C20.8328 20.9854 20.5662 21.1488 20.3212 21.3406L20.1113 20.0314C20.0969 19.9412 20.0646 19.8547 20.0163 19.7768C19.9681 19.699 19.9048 19.6312 19.83 19.5775C19.7552 19.5238 19.6705 19.4852 19.5806 19.4639C19.4908 19.4425 19.3975 19.4389 19.3062 19.4531C19.215 19.4674 19.1274 19.4993 19.0486 19.547C18.9698 19.5947 18.9012 19.6572 18.8469 19.7311C18.7925 19.8049 18.7534 19.8886 18.7318 19.9774C18.7102 20.0662 18.7065 20.1583 18.7209 20.2485L19.0345 22.2064C19.0603 22.3613 19.1383 22.5031 19.256 22.6087C19.156 22.7951 19.0712 22.989 19.0023 23.1887L18.5137 23.0788L18.4258 22.8547C18.3579 22.6835 18.2241 22.5457 18.0537 22.4717C17.8833 22.3977 17.6901 22.3934 17.5165 22.4598C17.3429 22.5262 17.203 22.6579 17.1275 22.826C17.0519 22.9941 17.0469 23.1849 17.1135 23.3567L17.336 23.9254C17.3776 24.0316 17.445 24.1261 17.5322 24.2006C17.6194 24.275 17.7238 24.3271 17.8362 24.3524L18.7775 24.5641C18.7773 24.7939 18.7944 25.0233 18.8288 25.2505H18.8248C18.7138 25.2532 18.6051 25.2818 18.5074 25.334C18.4098 25.3862 18.326 25.4604 18.263 25.5507L17.1245 27.1809C17.072 27.256 17.035 27.3407 17.0156 27.4299C16.9963 27.5192 16.9949 27.6113 17.0116 27.7011C17.0282 27.7909 17.0626 27.8766 17.1128 27.9532C17.163 28.0299 17.228 28.096 17.3041 28.1478C17.3801 28.1997 17.4658 28.2362 17.5561 28.2553C17.6465 28.2745 17.7397 28.2759 17.8306 28.2594C17.9215 28.2429 18.0082 28.2089 18.0858 28.1593C18.1634 28.1097 18.2303 28.0455 18.2828 27.9704L19.218 26.6315L19.266 26.6304C19.6947 27.5481 20.4666 28.2662 21.4196 28.6338C21.4458 28.6431 21.4725 28.6508 21.4996 28.6569C21.5265 28.663 21.5538 28.6674 21.5813 28.6702C22.6126 28.7465 23.6333 28.422 24.426 27.7657L24.5351 27.8206L24.6959 29.3753C24.7149 29.5588 24.8068 29.7273 24.9516 29.8438C25.0963 29.9602 25.282 30.0151 25.4677 29.9964C25.6534 29.9776 25.824 29.8868 25.9419 29.7438C26.0597 29.6008 26.1153 29.4174 26.0963 29.2339L25.8968 27.3027C25.8848 27.1871 25.8436 27.0763 25.7771 26.9804C25.7106 26.8846 25.6208 26.8067 25.516 26.754L25.418 26.7046C25.5419 26.5218 25.6522 26.3303 25.7479 26.1316L26.6892 26.3433C26.8014 26.3685 26.918 26.3662 27.029 26.3365C27.1401 26.3068 27.242 26.2507 27.3259 26.173L27.7771 25.7557C27.8446 25.6933 27.899 25.6184 27.9372 25.5353C27.9754 25.4521 27.9966 25.3623 27.9996 25.2711C28.0027 25.1798 27.9875 25.0888 27.9549 25.0033C27.9224 24.9179 27.8731 24.8396 27.8099 24.7729ZM22.5197 20.8278C22.5199 20.7951 22.5222 20.7625 22.5266 20.7301L22.5277 20.7232C22.532 20.6915 22.5383 20.6602 22.5467 20.6293L22.5476 20.6259C22.573 20.5329 22.6158 20.4455 22.6738 20.3681L22.6784 20.3621C22.7546 20.2623 22.8541 20.1822 22.9683 20.1285L22.9712 20.1273C23.0554 20.0881 23.146 20.0641 23.2388 20.0566L23.2669 20.0553L23.3036 20.0535L23.3299 20.0548L23.3609 20.0564C23.3853 20.0581 23.4093 20.0611 23.4331 20.0649L23.451 20.0677C23.4825 20.0736 23.5137 20.0814 23.5442 20.0911L23.5565 20.0955C23.5808 20.1037 23.6045 20.113 23.6277 20.1234L23.6465 20.1308L23.6655 20.1414L23.7012 20.1613C23.7576 20.1937 23.8096 20.233 23.8558 20.2784L23.8616 20.2843C23.9105 20.3334 23.9526 20.3887 23.9868 20.4488L23.9985 20.4703C24.0289 20.5278 24.0517 20.5889 24.0664 20.6522L24.0732 20.6824C24.0766 20.7005 24.0795 20.7186 24.0816 20.737C24.0837 20.7545 24.0847 20.7724 24.0856 20.7902L24.0877 20.82L24.0873 20.8259L24.0875 20.828C24.0873 20.8596 24.0851 20.8912 24.0811 20.9226L24.0794 20.9331C24.0754 20.9625 24.0696 20.9917 24.0621 21.0204L24.0592 21.0317C24.0425 21.093 24.0181 21.1519 23.9867 21.2072L23.9818 21.2151C23.9682 21.2383 23.9534 21.2607 23.9374 21.2824L23.9259 21.2975C23.91 21.3182 23.8931 21.338 23.8751 21.3569L23.8676 21.365C23.8244 21.4092 23.7761 21.4482 23.7236 21.4811L23.7178 21.4846C23.6935 21.4996 23.6685 21.5132 23.6427 21.5254L23.6336 21.5297C23.6063 21.5424 23.5783 21.5535 23.5497 21.5629L23.5482 21.5634C23.5178 21.5734 23.4869 21.5814 23.4556 21.5876L23.4525 21.5881C23.4247 21.5933 23.3967 21.597 23.3685 21.5992L23.3393 21.6006L23.3037 21.6024L23.2764 21.601L23.2463 21.5995C23.2206 21.5977 23.1954 21.5946 23.1705 21.5904L23.1561 21.5882C23.1241 21.5822 23.0924 21.5741 23.0613 21.5641L23.0507 21.5603C23.0257 21.5519 23.0012 21.5422 22.9773 21.5314L22.9589 21.5241L22.9588 21.5226C22.8281 21.4594 22.7179 21.3614 22.6404 21.2397C22.5629 21.1181 22.5213 20.9775 22.5202 20.8337L22.5196 20.8334L22.5199 20.829L22.5197 20.8278ZM24.7034 24.9128C24.5572 25.5702 24.194 26.161 23.6709 26.5922C23.1477 27.0234 22.4943 27.2705 21.8135 27.2947C21.2105 26.9817 20.73 26.4795 20.4476 25.8672C20.1651 25.2548 20.0967 24.5671 20.2531 23.9122C20.3376 23.5449 20.5007 23.1998 20.7314 22.8999C20.9621 22.6001 21.2551 22.3525 21.5906 22.1737C21.8994 22.5596 22.3325 22.8294 22.818 22.9385C23.3034 23.0476 23.812 22.9893 24.2593 22.7734C24.4835 23.0781 24.639 23.4266 24.7156 23.7956C24.7922 24.1646 24.788 24.5455 24.7034 24.9128Z" fill="#525779"/>
<path d="M4.91682 10.1468C5.13022 10.1468 5.30321 9.97384 5.30321 9.76044C5.30321 9.54705 5.13022 9.37405 4.91682 9.37405C4.70342 9.37405 4.53043 9.54705 4.53043 9.76044C4.53043 9.97384 4.70342 10.1468 4.91682 10.1468Z" fill="#525779" stroke="#525779" stroke-width="0.43867" stroke-miterlimit="10"/>
<path d="M7.25639 10.1468C7.46979 10.1468 7.64278 9.97384 7.64278 9.76044C7.64278 9.54705 7.46979 9.37405 7.25639 9.37405C7.04299 9.37405 6.87 9.54705 6.87 9.76044C6.87 9.97384 7.04299 10.1468 7.25639 10.1468Z" fill="#525779" stroke="#525779" stroke-width="0.43867" stroke-miterlimit="10"/>
<path d="M9.59596 10.1468C9.80936 10.1468 9.98235 9.97384 9.98235 9.76044C9.98235 9.54705 9.80936 9.37405 9.59596 9.37405C9.38256 9.37405 9.20957 9.54705 9.20957 9.76044C9.20957 9.97384 9.38256 10.1468 9.59596 10.1468Z" fill="#525779" stroke="#525779" stroke-width="0.43867" stroke-miterlimit="10"/>
<path d="M2.35542 12.1118H42.6454" stroke="#525779" stroke-width="1.5" stroke-linecap="round" stroke-linejoin="round"/>
<path d="M39.2611 7.30957H5.74338C3.79595 7.30957 2.21724 8.88828 2.21724 10.8357V34.1394C2.21724 36.0869 3.79595 37.6656 5.74338 37.6656H39.2611C41.2085 37.6656 42.7872 36.0869 42.7872 34.1394V10.8357C42.7872 8.88828 41.2085 7.30957 39.2611 7.30957Z" stroke="#525779" stroke-width="1.5" stroke-linecap="round" stroke-linejoin="round"/>
<path d="M37.6496 20.8784C37.7097 20.8219 37.7805 20.7779 37.8578 20.7491C37.9351 20.7202 38.0174 20.7071 38.0998 20.7104C38.1823 20.7137 38.2633 20.7334 38.338 20.7683C38.4128 20.8032 38.4798 20.8527 38.5352 20.9138L40.4837 23.0749C40.5924 23.1904 40.6554 23.3415 40.6609 23.5C40.6488 23.657 40.5867 23.806 40.4837 23.9251L38.4999 26.0862C38.3872 26.2083 38.2305 26.2807 38.0644 26.2873C37.8983 26.294 37.7364 26.2344 37.6142 26.1216C37.4921 26.0089 37.4197 25.8522 37.4131 25.6861C37.4065 25.52 37.4661 25.3581 37.5788 25.2359L38.6062 24.1023H34.0007C33.8321 24.1016 33.6705 24.0341 33.5515 23.9146C33.4324 23.7951 33.3656 23.6333 33.3656 23.4646C33.3656 23.2959 33.4324 23.1341 33.5515 23.0145C33.6705 22.895 33.8321 22.8275 34.0007 22.8269H38.6062L37.5788 21.6932C37.5291 21.6354 37.4914 21.5683 37.468 21.4958C37.4446 21.4233 37.436 21.3468 37.4426 21.2709C37.4492 21.195 37.4709 21.1211 37.5064 21.0537C37.542 20.9863 37.5907 20.9267 37.6496 20.8784Z" fill="#525779"/>
<path d="M7.35041 20.8784C7.29028 20.8219 7.2195 20.7779 7.14219 20.7491C7.06488 20.7202 6.9826 20.7071 6.90016 20.7104C6.81771 20.7137 6.73674 20.7334 6.66199 20.7683C6.58723 20.8032 6.52019 20.8527 6.46476 20.9138L4.51627 23.0749C4.4076 23.1904 4.34464 23.3415 4.33913 23.5C4.35118 23.657 4.41326 23.806 4.51626 23.9251L6.50008 26.0862C6.61283 26.2083 6.76949 26.2807 6.93558 26.2873C7.10168 26.294 7.26361 26.2344 7.38576 26.1216C7.50791 26.0089 7.58026 25.8522 7.5869 25.6861C7.59354 25.52 7.53393 25.3581 7.42118 25.2359L6.39384 24.1023H10.9993C11.168 24.1016 11.3295 24.0341 11.4485 23.9146C11.5676 23.7951 11.6344 23.6333 11.6344 23.4646C11.6344 23.2959 11.5676 23.1341 11.4485 23.0145C11.3295 22.895 11.168 22.8275 10.9993 22.8269H6.39385L7.42123 21.6932C7.47094 21.6354 7.50859 21.5683 7.53198 21.4958C7.55537 21.4233 7.56402 21.3468 7.55742 21.2709C7.55082 21.195 7.52911 21.1211 7.49356 21.0537C7.45801 20.9863 7.40934 20.9267 7.35041 20.8784Z" fill="#525779"/>
</svg>
