<svg id="Layer_1" data-name="Layer 1" xmlns="http://www.w3.org/2000/svg" viewBox="0 0 45 45">
  <defs>
    <style>
      .cls-1, .cls-2 {
        fill: #525779;
      }

      .cls-2, .cls-3 {
        stroke: #525779;
      }

      .cls-2 {
        stroke-miterlimit: 10;
        stroke-width: 0.43867px;
      }

      .cls-3 {
        fill: none;
        stroke-linecap: round;
        stroke-linejoin: round;
        stroke-width: 1.5px;
      }
    </style>
  </defs>
  <g>
    <path class="cls-1" d="M25.8723,25.69447a.5139.5139,0,0,0-.72593-.02414l-.13009.122-.35707-.08129a3.03635,3.03635,0,0,0,.02042-.43321.51074.51074,0,0,0,.36923-.23652l.75035-1.22344a.51371.51371,0,1,0-.87591-.537l-.51516.84a2.984,2.984,0,0,0-.39328-.63328,1.5824,1.5824,0,0,0-.12866-1.6307l.40878-.81365a.51372.51372,0,0,0-.91808-.46126l-.33484.66672c-.03454-.0104-.069-.02137-.10424-.02943-.0353-.008-.07089-.013-.10585-.01865l-.01284-.745a.51364.51364,0,1,0-1.02713.01779l.01579.90988a1.57988,1.57988,0,0,0-.82253,1.41521,2.97718,2.97718,0,0,0-.5799.35975l-.15323-.96741a.51379.51379,0,0,0-1.015.16043L19.466,23.798a.51433.51433,0,0,0,.16172.29724,2.94225,2.94225,0,0,0-.18519.42859l-.35669-.0812-.06421-.16558a.51365.51365,0,0,0-.958.3709l.16248.42028a.51354.51354,0,0,0,.36514.31548l.68719.15647a3.41414,3.41414,0,0,0,.0374.50715l-.00291,0a.5138.5138,0,0,0-.41012.22183l-.83116,1.2046a.51366.51366,0,1,0,.84561.58338L19.6,27.0678l.035-.00082a2.88894,2.88894,0,0,0,1.57221,1.48038.50568.50568,0,0,0,.0584.01708.49808.49808,0,0,0,.05963.00978,2.89629,2.89629,0,0,0,2.07673-.66834l.07967.04054.11736,1.14883a.51384.51384,0,0,0,1.02236-.10447l-.14569-1.427a.51384.51384,0,0,0-.278-.40549l-.07155-.03644a3.33356,3.33356,0,0,0,.24086-.42343l.68719.15642A.51339.51339,0,0,0,25.519,26.729l.32935-.30832A.51362.51362,0,0,0,25.8723,25.69447Zm-3.862-2.91516a.57351.57351,0,0,1,.00505-.07222l.00077-.00506a.56452.56452,0,0,1,.01388-.06941l.00067-.00248a.56906.56906,0,0,1,.09211-.19048l.00339-.00449a.57433.57433,0,0,1,.21167-.17255l.00205-.00095a.56711.56711,0,0,1,.1954-.05219l.02051-.001.02676-.00134.01923.001.02261.00114c.01784.00129.03535.00349.05272.00635l.01307.002a.56619.56619,0,0,1,.06807.01732l.00892.00324q.02662.00909.052.02061l.01374.00549.01384.00782.02609.01474a.55569.55569,0,0,1,.11287.08654l.0042.00434a.5736.5736,0,0,1,.0914.12155l.00854.01584a.56462.56462,0,0,1,.04961.13443l.00492.02233c.00253.01335.00463.02676.00615.04036.00153.01292.00224.02614.00291.0393l.00158.022-.00029.00434.0001.00157a.58173.58173,0,0,1-.00468.06994l-.00119.00773a.568.568,0,0,1-.01264.06454l-.00215.00835a.56729.56729,0,0,1-.05291.12966l-.00357.00587a.56319.56319,0,0,1-.0324.04966l-.00839.01121a.56143.56143,0,0,1-.03712.04389l-.00548.006a.57217.57217,0,0,1-.1051.08578l-.00424.00257a.57062.57062,0,0,1-.05486.03015l-.00663.0032a.57179.57179,0,0,1-.06126.02452l-.00109.00038a.56082.56082,0,0,1-.0676.01784l-.00224.00038a.58823.58823,0,0,1-.0613.00821l-.02133.001-.026.00133-.01994-.001-.022-.0011q-.02805-.00207-.05533-.00677l-.01045-.00162a.56028.56028,0,0,1-.06922-.01775l-.00778-.00281a.563.563,0,0,1-.05357-.02142l-.0134-.00535-.0001-.00114a.57156.57156,0,0,1-.32019-.509l-.00043-.00024.00023-.00329Zm1.59415,3.01849a2.24259,2.24259,0,0,1-2.1097,1.76007,2.242,2.242,0,0,1-1.1391-2.49945,1.95072,1.95072,0,0,1,.97643-1.28455,1.59249,1.59249,0,0,0,1.94822.44308A1.9519,1.9519,0,0,1,23.60445,25.7978Z"/>
    <g>
      <circle class="cls-2" cx="12.91682" cy="15.76044" r="0.38639"/>
      <circle class="cls-2" cx="15.25639" cy="15.76044" r="0.38639"/>
      <circle class="cls-2" cx="17.59596" cy="15.76044" r="0.38639"/>
    </g>
    <line class="cls-3" x1="10.35542" y1="18.11182" x2="34.64458" y2="18.11182"/>
    <rect class="cls-3" x="10.21724" y="13.30958" width="24.56551" height="18.38084" rx="2.13511"/>
  </g>
  <g>
    <path class="cls-1" d="M38.64959,19.87838a.62124.62124,0,0,1,.88565.03543l1.94849,2.16107a.65363.65363,0,0,1,.17714.42512.73605.73605,0,0,1-.17713.42513l-1.98382,2.16106a.62677.62677,0,0,1-.9211-.85026l1.02734-1.13367H35.00074a.6377.6377,0,0,1,0-1.27539l4.60541,0-1.02738-1.13367A.57158.57158,0,0,1,38.64959,19.87838Z"/>
    <path class="cls-1" d="M6.35041,19.87838a.62124.62124,0,0,0-.88565.03543L3.51627,22.07488A.65363.65363,0,0,0,3.33913,22.5a.73605.73605,0,0,0,.17713.42513l1.98382,2.16106a.62677.62677,0,0,0,.9211-.85026L5.39384,23.10226H9.99926a.6377.6377,0,0,0,0-1.27539l-4.60541,0,1.02738-1.13367A.57158.57158,0,0,0,6.35041,19.87838Z"/>
  </g>
</svg>
