<svg id="Layer_1" data-name="Layer 1" xmlns="http://www.w3.org/2000/svg" viewBox="0 0 45 45">
  <defs>
    <style>
      .cls-1 {
        fill: #525779;
      }
    </style>
  </defs>
  <path class="cls-1" d="M41.78515,32.80941H36.71453V24.74718L40.37,28.40269A.93891.93891,0,0,0,41.973,27.741V17.97314a6.19487,6.19487,0,0,0-9.91823-4.95361,5.818,5.818,0,0,0-1.162-.117H21.26718A11.08973,11.08973,0,0,0,10.23461,2.76127H4.97619a.93894.93894,0,0,0-.939.93886v12.395a.93894.93894,0,0,0,.93886.939H7.981a.93966.93966,0,0,0,.66391-.2751l.6507-.6507V32.80941H4.225a.93892.93892,0,0,0-.939.93885v3.75617a.93893.93893,0,0,0,.93885.939h2.9118a4.6953,4.6953,0,0,0,9.20077,0H29.67273a4.69529,4.69529,0,0,0,9.20077,0h2.91165a.93893.93893,0,0,0,.939-.93885V33.74841a.93893.93893,0,0,0-.93886-.939ZM35.77553,13.65372A4.324,4.324,0,0,1,40.095,17.97314V25.472l-3.38042-3.38042V18.72434A5.81645,5.81645,0,0,0,34.213,13.94863,4.31527,4.31527,0,0,1,35.77553,13.65372Zm-24.60191.57661.4761-.47611a.9389.9389,0,0,0-1.32781-1.32781l-.75086.75071-.00074.00092L7.59215,15.15609h-1.677V4.63925h4.31942a9.21245,9.21245,0,0,1,9.20224,9.20227.93894.93894,0,0,0,.93886.939h10.517a3.94859,3.94859,0,0,1,3.94382,3.94381V32.80941H32.75971L30.67923,24.139a.93936.93936,0,0,0-.91333-.71967H16.24424a.93936.93936,0,0,0-.91333.71967l-2.08048,8.67038H11.17362ZM29.67273,36.56542H16.3374a4.6674,4.6674,0,0,0-.85317-1.878H30.52591A4.66755,4.66755,0,0,0,29.67273,36.56542ZM15.182,32.80941l1.80245-7.512H29.0257l1.80245,7.512Zm-10.018,1.878H7.98981a4.66755,4.66755,0,0,0-.85318,1.878H5.164Zm6.573,5.634a2.817,2.817,0,1,1,2.817-2.817A2.817,2.817,0,0,1,11.737,40.32144Zm22.5361,0a2.817,2.817,0,1,1,2.817-2.817A2.817,2.817,0,0,1,34.27312,40.32144Zm6.573-3.756H38.87351a4.66755,4.66755,0,0,0-.85318-1.878h2.82582Z"/>
</svg>
