<svg id="Layer_1" data-name="Layer 1" xmlns="http://www.w3.org/2000/svg" viewBox="0 0 45 45">
  <defs>
    <style>
      .cls-1, .cls-2, .cls-3 {
        fill: #525779;
      }

      .cls-1, .cls-2 {
        stroke: #525779;
        stroke-miterlimit: 10;
      }

      .cls-1 {
        stroke-width: 0.5px;
      }
    </style>
  </defs>
  <path class="cls-1" d="M40.73084,31.59471l-3.32565-8.86757a8.01242,8.01242,0,0,0-7.4686-5.17624H25.22178V16.32373a1.22841,1.22841,0,0,0-1.22718-1.22718V11.21076a1.84077,1.84077,0,1,0-3.68153,0v3.88579a1.22841,1.22841,0,0,0-1.22717,1.22718V17.5509H14.37108a8.01355,8.01355,0,0,0-7.46921,5.17562L3.57622,31.59471a6.96025,6.96025,0,0,0-.44362,2.45006,6.20909,6.20909,0,0,0,11.37532,3.44407l.61113-.9167H29.18863l.61113.9167a6.20909,6.20909,0,0,0,11.37532-3.44407A6.94715,6.94715,0,0,0,40.73084,31.59471ZM34.96618,39.0265a4.97309,4.97309,0,0,1-4.14541-2.21813l-.9756-1.4634H14.46251l-.97561,1.4634a4.98205,4.98205,0,0,1-9.12712-2.7636,5.72526,5.72526,0,0,1,.36631-2.0187l3.32565-8.86881a6.77928,6.77928,0,0,1,6.31934-4.37918H29.93659a6.77977,6.77977,0,0,1,6.32,4.37979l3.32565,8.8682a5.73834,5.73834,0,0,1,.3657,2.0187A4.988,4.988,0,0,1,34.96618,39.0265Z"/>
  <path class="cls-2" d="M14.17719,24.41127a3.86561,3.86561,0,1,0,3.86561,3.86561A3.86978,3.86978,0,0,0,14.17719,24.41127Zm0,6.87219a3.00658,3.00658,0,1,1,3.00658-3.00658A3.01043,3.01043,0,0,1,14.17719,31.28346Z"/>
  <path class="cls-2" d="M30.13049,24.41127a3.86561,3.86561,0,1,0,3.8656,3.86561A3.86978,3.86978,0,0,0,30.13049,24.41127Zm0,6.87219a3.00658,3.00658,0,1,1,3.00658-3.00658A3.01044,3.01044,0,0,1,30.13049,31.28346Z"/>
  <path class="cls-3" d="M26.14522,11.17734h0a.67708.67708,0,0,0,.66732-.78845,4.72526,4.72526,0,0,0-9.31775-.00036.67711.67711,0,0,0,.66729.7885h0a.68528.68528,0,0,0,.66733-.58377,3.37524,3.37524,0,0,1,6.64851.00026A.6853.6853,0,0,0,26.14522,11.17734Z"/>
  <path class="cls-3" d="M14.768,11.2349h.00231a.73852.73852,0,0,0,.7343-.6677,6.68252,6.68252,0,0,1,13.298.00051.73855.73855,0,0,0,.73427.66776h.00232a.74206.74206,0,0,0,.74185-.807,8.1675,8.1675,0,0,0-16.25487-.00062A.7421.7421,0,0,0,14.768,11.2349Z"/>
</svg>
