<svg id="Layer_1" data-name="Layer 1" xmlns="http://www.w3.org/2000/svg" viewBox="0 0 45 45">
  <defs>
    <style>
      .cls-1, .cls-3 {
        fill: #525779;
      }

      .cls-1, .cls-2, .cls-3 {
        stroke: #525779;
      }

      .cls-1 {
        stroke-width: 0.54543px;
      }

      .cls-2 {
        fill: none;
      }

      .cls-2, .cls-3 {
        stroke-linecap: round;
        stroke-linejoin: round;
        stroke-width: 1.63629px;
      }

      .cls-4 {
        fill: #fff;
      }
    </style>
  </defs>
  <g>
    <g>
      <path class="cls-1" d="M13.0706,28.26411a4.127,4.127,0,0,0,1.10482-.16247c.35744.71489,1.42976,1.78721,4.61423,2.59957.74412.17962.92091.94682.94636,1.59763a.5387.5387,0,0,0,.50778.513h0a.54036.54036,0,0,0,.57423-.55353,2.51864,2.51864,0,0,0-1.76842-2.62947c-2.892-.71488-3.67189-1.62473-3.86686-2.01467a2.76791,2.76791,0,0,0,.55241-.51991"/>
      <path class="cls-1" d="M15.08526,27.67921a3.65074,3.65074,0,0,0,.6499-.5849c1.42976-1.62474,1.2023-4.41927,1.1698-4.67923a3.73964,3.73964,0,0,0-3.89935-3.93185,3.73967,3.73967,0,0,0-3.89936,3.93185c-.03249.29245-.26,3.05449,1.16981,4.67923a2.76764,2.76764,0,0,0,.55241.51991c-.195.38994-.97484,1.29979-3.86687,2.01467a2.51866,2.51866,0,0,0-1.76842,2.62947.54037.54037,0,0,0,.57424.55353h0a.53869.53869,0,0,0,.50778-.513c.02545-.65081.20224-1.418.94636-1.59763,3.18447-.81236,4.2568-1.88468,4.61424-2.59957a4.127,4.127,0,0,0,1.10481.16247h.13a4.70324,4.70324,0,0,0,.97484-.13m.84488-1.75473a2.35825,2.35825,0,0,1-1.88469.77987h-.065a2.35825,2.35825,0,0,1-1.88469-.77987c-1.1698-1.33228-.90984-3.83436-.90984-3.86686v-.03249c.13-2.892,2.33961-2.957,2.79453-2.92452h.13c.5849,0,2.56708.22746,2.69705,2.92452v.03249S16.02762,25.04713,14.89032,26.37941Z"/>
      <path class="cls-1" d="M10.27606,27.09431a2.76764,2.76764,0,0,0,.55241.51991c-.195.38994-.97484,1.29979-3.86687,2.01467a2.51866,2.51866,0,0,0-1.76842,2.62947.54037.54037,0,0,0,.57424.55353h0a.53869.53869,0,0,0,.50778-.513c.02545-.65081.20224-1.418.94636-1.59763,3.18447-.81236,4.2568-1.88468,4.61424-2.59957a4.127,4.127,0,0,0,1.10481.16247"/>
    </g>
    <line class="cls-2" x1="23.69257" y1="31.74489" x2="35.1038" y2="31.74489"/>
    <line class="cls-2" x1="23.69257" y1="28.60563" x2="35.1038" y2="28.60563"/>
    <line class="cls-2" x1="23.69257" y1="25.46637" x2="35.1038" y2="25.46637"/>
    <line class="cls-2" x1="23.69257" y1="22.32712" x2="35.1038" y2="22.32712"/>
    <path class="cls-2" d="M33.3323,10.88151H5.2809a3.18567,3.18567,0,0,0-3.18568,3.18568V35.12084A3.18567,3.18567,0,0,0,5.2809,38.30652H35.56234A3.18567,3.18567,0,0,0,38.748,35.12084V16.307"/>
    <circle class="cls-3" cx="38.09805" cy="11.50021" r="4.80673"/>
  </g>
  <path class="cls-4" d="M41.63444,12.15659a.47489.47489,0,0,0-.67085-.02231l-.12023.11273-.33-.07513a2.804,2.804,0,0,0,.01887-.40034.472.472,0,0,0,.34123-.21858l.69342-1.13063a.47474.47474,0,1,0-.80946-.49627l-.47608.77626a2.75723,2.75723,0,0,0-.36345-.58524,1.46231,1.46231,0,0,0-.1189-1.507l.37778-.75193a.47475.47475,0,0,0-.84844-.42626l-.30944.61614c-.03192-.00961-.06375-.01975-.09632-.0272-.03263-.00741-.06552-.012-.09783-.01724l-.01186-.68849a.47468.47468,0,1,0-.94921.01645l.01459.84085a1.46,1.46,0,0,0-.76013,1.30785,2.751,2.751,0,0,0-.53591.33245l-.1416-.894a.47481.47481,0,0,0-.938.14826l.21148,1.337a.47526.47526,0,0,0,.14946.2747,2.71829,2.71829,0,0,0-.17115.39607l-.32963-.075-.05934-.153a.47468.47468,0,0,0-.88533.34277l.15016.3884a.47458.47458,0,0,0,.33743.29154l.63506.1446a3.15558,3.15558,0,0,0,.03456.46868l-.00269,0a.47483.47483,0,0,0-.379.205l-.76811,1.11322A.47469.47469,0,1,0,35.207,14.34l.631-.91426.03232-.00075a2.66981,2.66981,0,0,0,1.45294,1.36808.46886.46886,0,0,0,.054.01578.46224.46224,0,0,0,.0551.009,2.67662,2.67662,0,0,0,1.9192-.61765l.07362.03748.10845,1.06167a.47487.47487,0,0,0,.94481-.09655l-.13464-1.31874a.47488.47488,0,0,0-.25693-.37473l-.06613-.03368a3.08082,3.08082,0,0,0,.22259-.39131l.635.14456a.47444.47444,0,0,0,.42958-.11634l.30437-.28493A.47465.47465,0,0,0,41.63444,12.15659Zm-3.569-2.694a.52854.52854,0,0,1,.00468-.06674l.0007-.00468a.52292.52292,0,0,1,.01283-.06414l.00062-.00229a.52594.52594,0,0,1,.08513-.176l.00313-.00414a.5306.5306,0,0,1,.19561-.15946L38.37,8.98421a.52382.52382,0,0,1,.18058-.04823l.019-.001.02473-.00124.01776.00088.0209.00106c.01649.00119.03267.00322.04872.00587l.01208.00185a.52429.52429,0,0,1,.06291.016l.00824.003q.0246.0084.048.019l.0127.00507.01278.00723.02412.01363a.5133.5133,0,0,1,.1043.08l.00388.004a.53.53,0,0,1,.08447.11233l.00789.01464a.52211.52211,0,0,1,.04585.12423l.00454.02063.00569.0373.00269.03633.00145.02028-.00026.004.00009.00145a.53941.53941,0,0,1-.00432.06463l-.0011.00715A.52647.52647,0,0,1,39.106,9.594l-.002.00772a.52464.52464,0,0,1-.04889.11982L39.0518,9.727a.52032.52032,0,0,1-.02993.04589l-.00776.01036a.52087.52087,0,0,1-.0343.04056l-.00507.00555a.52825.52825,0,0,1-.09712.07927l-.00393.00238a.52743.52743,0,0,1-.05069.02786l-.00613.003a.52721.52721,0,0,1-.05661.02266l-.001.00035a.5193.5193,0,0,1-.06247.01649l-.00207.00035a.54131.54131,0,0,1-.05666.00758l-.0197.001-.02407.00124-.01843-.00093-.02037-.001c-.01728-.00128-.03434-.0034-.05114-.00626l-.00965-.0015a.51774.51774,0,0,1-.064-.0164l-.00719-.0026a.52061.52061,0,0,1-.04951-.0198L38.36164,9.938,38.36155,9.937a.52822.52822,0,0,1-.29591-.4704l-.00039-.00022.00022-.003Zm1.47322,2.7895A2.07245,2.07245,0,0,1,37.589,13.87863a2.07191,2.07191,0,0,1-1.05269-2.30984,1.80273,1.80273,0,0,1,.90235-1.1871,1.47169,1.47169,0,0,0,1.80043.40947A1.80379,1.80379,0,0,1,39.53864,12.25208Z"/>
</svg>
