<svg id="Layer_1" data-name="Layer 1" xmlns="http://www.w3.org/2000/svg" viewBox="0 0 45 45">
  <defs>
    <style>
      .cls-1, .cls-3 {
        fill: #525779;
      }

      .cls-2 {
        fill: none;
        stroke-linecap: round;
        stroke-linejoin: round;
        stroke-width: 1.5px;
      }

      .cls-2, .cls-3 {
        stroke: #525779;
      }

      .cls-3 {
        stroke-miterlimit: 10;
        stroke-width: 0.1px;
      }
    </style>
  </defs>
  <path class="cls-1" d="M28.1627,28.58942a.7507.7507,0,0,0-1.06044-.03527l-.19.1782-.52162-.11875a4.43233,4.43233,0,0,0,.02982-.63284.74612.74612,0,0,0,.53939-.34552L28.05594,25.848a.75044.75044,0,1,0-1.27955-.78448l-.75256,1.22708a4.35822,4.35822,0,0,0-.57451-.92512,2.31155,2.31155,0,0,0-.188-2.38216l.59716-1.1886a.75046.75046,0,0,0-1.34116-.67382l-.48914.974c-.05045-.0152-.10077-.03122-.15227-.043-.05157-.01171-.10355-.019-.15464-.02725l-.01874-1.08832a.75034.75034,0,1,0-1.50046.026l.02306,1.32917a2.30784,2.30784,0,0,0-1.20156,2.06737,4.3488,4.3488,0,0,0-.84714.52552l-.22384-1.41321a.75055.75055,0,0,0-1.48269.23436l.3343,2.11351a.75135.75135,0,0,0,.23624.43423,4.29735,4.29735,0,0,0-.27053.62608l-.52106-.11861-.0938-.24189a.75035.75035,0,0,0-1.39948.54183l.23736.614a.7502.7502,0,0,0,.53339.46085l1.00387.22857a4.987,4.987,0,0,0,.05463.74086l-.00425-.00007a.75061.75061,0,0,0-.59911.324l-1.21418,1.7597a.75037.75037,0,1,0,1.23529.85222L19,30.59561l.05109-.00119A4.22019,4.22019,0,0,0,21.34781,32.757a.739.739,0,0,0,.0853.02495.73054.73054,0,0,0,.08711.01429,4.231,4.231,0,0,0,3.03374-.97634l.11638.05924.17143,1.67823a.75064.75064,0,0,0,1.4935-.15262l-.21283-2.08458a.75064.75064,0,0,0-.40615-.59236l-.10453-.05324a4.86805,4.86805,0,0,0,.35186-.61855l1.00386.22851a.74994.74994,0,0,0,.679-.18391l.48113-.4504A.75028.75028,0,0,0,28.1627,28.58942ZM22.521,24.3309a.83645.83645,0,0,1,.00739-.10551l.00111-.00739a.8264.8264,0,0,1,.02028-.10139l.001-.00363a.83114.83114,0,0,1,.13457-.27826l.00494-.00655a.83879.83879,0,0,1,.30921-.25207l.003-.00139a.82823.82823,0,0,1,.28544-.07624l.03-.00153c.0131-.00063.02592-.00195.03909-.00195l.02809.00139.033.00167c.02606.00188.05164.00509.077.00927l.01909.00293a.82824.82824,0,0,1,.09945.02529l.013.00474q.03888.01328.07589.03011l.02007.008.02021.01143c.013.00676.02557.01415.03812.02154a.81189.81189,0,0,1,.16488.12641l.00613.00634a.8379.8379,0,0,1,.13353.17757l.01247.02313a.826.826,0,0,1,.07248.19639l.00717.03261c.0037.01951.00676.0391.009.059.00223.01888.00328.03819.00425.05742.00042.01073.0023.02132.0023.03206l-.00041.00634.00014.0023a.851.851,0,0,1-.00683.10216l-.00175.01129a.82954.82954,0,0,1-.01846.09429l-.00314.01219a.82935.82935,0,0,1-.07728.18942l-.00523.00857a.82038.82038,0,0,1-.04732.07254l-.01226.01638a.8216.8216,0,0,1-.05422.06411l-.008.00879a.83613.83613,0,0,1-.15352.1253l-.0062.00376a.83524.83524,0,0,1-.08014.044l-.00969.00467a.83072.83072,0,0,1-.08948.03582l-.0016.00056a.81948.81948,0,0,1-.09875.02606l-.00328.00056a.86083.86083,0,0,1-.08955.012l-.03115.00153c-.01275.00063-.02522.002-.03805.002l-.02913-.00146-.03219-.00161q-.041-.003-.08084-.00989l-.01526-.00237a.81555.81555,0,0,1-.10112-.02593l-.01136-.00411a.82111.82111,0,0,1-.07826-.03129l-.01958-.0078-.00014-.00168a.835.835,0,0,1-.46775-.74357l-.00063-.00035.00035-.00481Zm2.32878,4.40946a3.276,3.276,0,0,1-3.0819,2.57115,3.27511,3.27511,0,0,1-1.664-3.65125,2.84965,2.84965,0,0,1,1.42638-1.8765,2.32634,2.32634,0,0,0,2.846.64727A2.85136,2.85136,0,0,1,24.84979,28.74036Z"/>
  <path class="cls-2" d="M38.55724,13.1184V10.49049a2.0075,2.0075,0,0,0-2.0075-2.0075H18.69635V5.97973a1.19405,1.19405,0,0,0-1.194-1.194H6.45074a2.0075,2.0075,0,0,0-2.0075,2.00751V38.15977h34.114"/>
  <path class="cls-2" d="M27.47938,15.89258l.24936-1.74869a1.194,1.194,0,0,1,1.18209-1.02549H39.814a2.00751,2.00751,0,0,1,1.9874,2.29091L38.55724,38.15977H4.44324L7.37263,17.61668A2.0075,2.0075,0,0,1,9.36,15.89258Z"/>
  <g>
    <circle class="cls-3" cx="8.24824" cy="8.52693" r="0.74219"/>
    <circle class="cls-3" cx="11.58227" cy="8.52693" r="0.74219"/>
    <circle class="cls-3" cx="14.91629" cy="8.52693" r="0.74219"/>
  </g>
</svg>
