<svg id="Layer_1" data-name="Layer 1" xmlns="http://www.w3.org/2000/svg" viewBox="0 0 45 45">
  <defs>
    <style>
      .cls-1, .cls-2 {
        fill: #525779;
      }

      .cls-2, .cls-3 {
        stroke: #525779;
      }

      .cls-2 {
        stroke-miterlimit: 10;
        stroke-width: 0.66593px;
      }

      .cls-3 {
        fill: none;
        stroke-linecap: round;
        stroke-linejoin: round;
        stroke-width: 1.5px;
      }
    </style>
  </defs>
  <g>
    <path class="cls-1" d="M27.6899,26.39675a.78014.78014,0,0,0-1.102-.03664l-.19749.18518-.54206-.12341a4.60715,4.60715,0,0,0,.031-.65764.77534.77534,0,0,0,.56052-.359L27.579,23.54792a.77985.77985,0,1,0-1.32969-.81523l-.78206,1.27516a4.52872,4.52872,0,0,0-.597-.96136,2.40215,2.40215,0,0,0-.19531-2.47552l.62056-1.23518a.77986.77986,0,0,0-1.39371-.70023L23.3934,19.6477c-.05243-.01579-.10472-.03245-.15824-.04468-.05359-.01217-.10761-.0197-.1607-.02832l-.01948-1.131a.77975.77975,0,1,0-1.55926.027l.024,1.38125a2.39837,2.39837,0,0,0-1.24866,2.1484,4.51874,4.51874,0,0,0-.88033.54611l-.23261-1.46859a.78.78,0,0,0-1.54079.24355l.34739,2.19633a.78083.78083,0,0,0,.2455.45125,4.4651,4.4651,0,0,0-.28113.65061l-.54148-.12325-.09747-.25137a.77976.77976,0,0,0-1.45433.56306l.24666.638a.77957.77957,0,0,0,.5543.47891l1.0432.23754a5.18221,5.18221,0,0,0,.05678.76989l-.00442-.00007a.78.78,0,0,0-.62259.33675L15.848,29.09778a.77978.77978,0,1,0,1.2837.88562l1.03647-1.50184.05308-.00123a4.38562,4.38562,0,0,0,2.38673,2.24732.76931.76931,0,0,0,.08864.02593.75869.75869,0,0,0,.09052.01484,4.39676,4.39676,0,0,0,3.15264-1.01459l.12094.06155.17815,1.744a.78005.78005,0,0,0,1.552-.1586l-.22117-2.16628a.78.78,0,0,0-.42206-.61557l-.10863-.05532a5.05914,5.05914,0,0,0,.36565-.6428l1.0432.23746a.77935.77935,0,0,0,.70566-.19111l.5-.468A.77971.77971,0,0,0,27.6899,26.39675Zm-5.86279-4.4254a.86791.86791,0,0,1,.00768-.10965l.00115-.00767a.859.859,0,0,1,.02108-.10537l.001-.00377a.8643.8643,0,0,1,.13984-.28917l.00515-.00681a.87177.87177,0,0,1,.32132-.26194l.00312-.00145a.861.861,0,0,1,.29663-.07922l.03114-.0016c.01361-.00065.02694-.002.04062-.002l.02919.00145.03432.00173c.02709.002.05367.00529.08.00964l.01984.003a.85754.85754,0,0,1,.10334.02629l.01355.00492q.04041.0138.07886.03128l.02086.00833.021.01188c.01354.007.02658.0147.03961.02238a.84356.84356,0,0,1,.17135.13137l.00637.00659a.87105.87105,0,0,1,.13876.18452l.013.024a.85781.85781,0,0,1,.07531.20408l.00746.03389c.00384.02028.007.04063.00935.06127.00231.01963.0034.03969.00441.05967.00044.01116.00239.02217.00239.03332l-.00043.00659.00014.00239a.88392.88392,0,0,1-.00709.10616l-.00181.01174a.86207.86207,0,0,1-.01919.098l-.00326.01267a.862.862,0,0,1-.08032.19684l-.00543.00891a.85115.85115,0,0,1-.04917.07539l-.01275.017a.85117.85117,0,0,1-.05634.06663l-.00833.00913a.86843.86843,0,0,1-.15954.13021l-.00644.00391a.86706.86706,0,0,1-.08329.04576l-.01006.00486a.8632.8632,0,0,1-.093.03722l-.00166.00058a.85091.85091,0,0,1-.10262.02708l-.00341.00058a.89162.89162,0,0,1-.09305.01246l-.03238.00159c-.01325.00066-.02621.002-.03954.002l-.03027-.00152-.03346-.00167q-.04257-.00315-.084-.01028l-.01586-.00246a.85011.85011,0,0,1-.10508-.02694l-.01181-.00427a.8526.8526,0,0,1-.08132-.03252l-.02035-.00811-.00015-.00174a.86769.86769,0,0,1-.48608-.77271l-.00065-.00037.00036-.005Zm2.42,4.58226a3.4044,3.4044,0,0,1-3.20268,2.67192,3.40348,3.40348,0,0,1-1.72923-3.79434,2.96134,2.96134,0,0,1,1.48228-1.95,2.41752,2.41752,0,0,0,2.95754.67263A2.96306,2.96306,0,0,1,24.24715,26.55361Z"/>
    <g>
      <circle class="cls-2" cx="8.02257" cy="11.3162" r="0.58657"/>
      <circle class="cls-2" cx="11.5742" cy="11.3162" r="0.58657"/>
      <circle class="cls-2" cx="15.12584" cy="11.3162" r="0.58657"/>
    </g>
    <line class="cls-3" x1="4.13419" y1="14.88576" x2="41.00683" y2="14.88576"/>
    <rect class="cls-3" x="3.92442" y="7.59562" width="37.29218" height="27.90341" rx="3.24125"/>
  </g>
  <g>
    <path class="cls-1" d="M35.7201,21.87838a.62125.62125,0,0,1,.88566.03543l1.94848,2.16107a.65363.65363,0,0,1,.17714.42512.736.736,0,0,1-.17712.42513l-1.98383,2.16106a.62677.62677,0,0,1-.9211-.85026l1.02734-1.13367H32.07126a.6377.6377,0,0,1,0-1.27539l4.60542,0-1.02739-1.13367A.57159.57159,0,0,1,35.7201,21.87838Z"/>
    <path class="cls-1" d="M9.42093,21.87838a.62125.62125,0,0,0-.88566.03543L6.58679,24.07488A.65358.65358,0,0,0,6.40965,24.5a.736.736,0,0,0,.17712.42513L8.5706,27.08619a.62677.62677,0,0,0,.9211-.85026L8.46436,25.10226h4.60541a.6377.6377,0,0,0,0-1.27539l-4.60541,0,1.02738-1.13367A.57158.57158,0,0,0,9.42093,21.87838Z"/>
  </g>
</svg>
