<svg id="Layer_1" data-name="Layer 1" xmlns="http://www.w3.org/2000/svg" viewBox="0 0 45 45">
  <defs>
    <style>
      .cls-1 {
        fill: #525779;
      }

      .cls-2, .cls-3 {
        fill: none;
        stroke: #525779;
        stroke-linecap: round;
        stroke-linejoin: round;
      }

      .cls-2 {
        stroke-width: 1.38001px;
      }

      .cls-3 {
        stroke-width: 0.92219px;
      }
    </style>
  </defs>
  <g>
    <path class="cls-1" d="M17.81392,15.00524l1.03758.94031V11.7304a.58364.58364,0,0,1,1.16727,0v4.21515l1.03757-.94031a.57364.57364,0,1,1,.77818.843L19.85665,17.664a.67369.67369,0,0,1-.38909.16212.59823.59823,0,0,1-.38909-.16212L17.10059,15.8807a.56863.56863,0,0,1-.03242-.81061A.52312.52312,0,0,1,17.81392,15.00524Z"/>
    <g>
      <g>
        <path class="cls-2" d="M29.11654,23.75964V37.68888a.98368.98368,0,0,1-.98368.98368H16.94866a.98368.98368,0,0,1-.98368-.98368V21.24406a.98368.98368,0,0,1,.98368-.98368H25.545Z"/>
        <path class="cls-2" d="M26.52687,23.75964a.9837.9837,0,0,1-.98368-.98369V20.26038H16.94866a.98368.98368,0,0,0-.98368.98368V37.68888a.98368.98368,0,0,0,.98368.98368H28.13284a.98369.98369,0,0,0,.9837-.98368V23.75964Z"/>
      </g>
      <line class="cls-3" x1="18.01245" y1="28.52307" x2="27.06907" y2="28.52307"/>
      <line class="cls-3" x1="18.01245" y1="30.40987" x2="27.06907" y2="30.40987"/>
      <line class="cls-3" x1="18.01245" y1="32.29667" x2="27.06907" y2="32.29667"/>
      <line class="cls-3" x1="18.01245" y1="26.63627" x2="27.06907" y2="26.63627"/>
      <line class="cls-3" x1="18.01245" y1="28.52307" x2="24.80492" y2="28.52307"/>
      <line class="cls-3" x1="18.01245" y1="34.18346" x2="27.06907" y2="34.18346"/>
      <line class="cls-3" x1="18.01245" y1="36.07026" x2="27.06907" y2="36.07026"/>
    </g>
    <circle class="cls-2" cx="19.46756" cy="8.01329" r="1.68586"/>
    <path class="cls-1" d="M10.67781,26.04442l.9403-1.03758H7.403a.58364.58364,0,0,1,0-1.16727h4.21515l-.9403-1.03757a.57364.57364,0,1,1,.843-.77818l1.81575,1.97787a.67369.67369,0,0,1,.16212.38909.59823.59823,0,0,1-.16212.38909l-1.78333,1.97787a.56862.56862,0,0,1-.81061.03243A.52311.52311,0,0,1,10.67781,26.04442Z"/>
    <circle class="cls-2" cx="3.68586" cy="24.39078" r="1.68586"/>
    <path class="cls-1" d="M34.32219,33.48367l-.9403,1.03757H37.597a.58364.58364,0,0,1,0,1.16728l-4.21515,0,.9403,1.03758a.57364.57364,0,0,1-.843.77818l-1.81575-1.97788a.67364.67364,0,0,1-.16212-.38909.59827.59827,0,0,1,.16212-.38909l1.78333-1.97787a.56862.56862,0,0,1,.81061-.03242A.52311.52311,0,0,1,34.32219,33.48367Z"/>
    <circle class="cls-2" cx="41.31414" cy="35.1373" r="1.68586"/>
  </g>
</svg>
