<svg id="Layer_1" data-name="Layer 1" xmlns="http://www.w3.org/2000/svg" viewBox="0 0 45 45">
  <defs>
    <style>
      .cls-1 {
        fill: #525779;
      }

      .cls-2, .cls-3 {
        fill: none;
        stroke: #525779;
        stroke-linecap: round;
        stroke-linejoin: round;
      }

      .cls-2 {
        stroke-width: 1.2px;
      }

      .cls-3 {
        stroke-width: 0.8019px;
      }
    </style>
  </defs>
  <g>
    <path class="cls-1" d="M18.42519,9.891l.90222.81764,0-3.66531a.50751.50751,0,0,1,1.015,0v3.66531l.90223-.81764a.49881.49881,0,0,1,.67667.73306L20.20145,12.203a.58576.58576,0,0,1-.33833.141.52019.52019,0,0,1-.33834-.141L17.8049,10.65226a.49444.49444,0,0,1-.02819-.70486A.45488.45488,0,0,1,18.42519,9.891Z"/>
    <g>
      <g>
        <path class="cls-2" d="M28.25346,17.50346V29.61574a.85537.85537,0,0,1-.85537.85537h-9.7253a.85537.85537,0,0,1-.85537-.85537V15.316a.85537.85537,0,0,1,.85537-.85537h7.475Z"/>
        <path class="cls-2" d="M26.0016,17.50346a.85539.85539,0,0,1-.85537-.85537V14.46065H17.67279a.85537.85537,0,0,0-.85537.85537V29.61574a.85537.85537,0,0,0,.85537.85537h9.72529a.85538.85538,0,0,0,.85538-.85537V17.50346Z"/>
      </g>
      <line class="cls-3" x1="18.59781" y1="21.64554" x2="26.47307" y2="21.64554"/>
      <line class="cls-3" x1="18.59781" y1="23.28622" x2="26.47307" y2="23.28622"/>
      <line class="cls-3" x1="18.59781" y1="24.9269" x2="26.47307" y2="24.9269"/>
      <line class="cls-3" x1="18.59781" y1="20.00486" x2="26.47307" y2="20.00486"/>
      <line class="cls-3" x1="18.59781" y1="21.64554" x2="24.50426" y2="21.64554"/>
      <line class="cls-3" x1="18.59781" y1="26.56757" x2="26.47307" y2="26.56757"/>
      <line class="cls-3" x1="18.59781" y1="28.20825" x2="26.47307" y2="28.20825"/>
    </g>
    <circle class="cls-2" cx="19.86312" cy="3.8111" r="1.46595"/>
    <path class="cls-1" d="M12.21992,19.4902l.81765-.90223H9.37226a.50751.50751,0,1,1,0-1.015h3.66531l-.81765-.90223a.49881.49881,0,0,1,.73306-.67667l1.57891,1.71988a.58578.58578,0,0,1,.141.33833.52023.52023,0,0,1-.141.33834l-1.55071,1.71987a.49444.49444,0,0,1-.70487.0282A.45488.45488,0,0,1,12.21992,19.4902Z"/>
    <circle class="cls-2" cx="6.14002" cy="18.05227" r="1.46595"/>
    <path class="cls-1" d="M26.4625,35.109l-.90223-.81764v3.66531a.50751.50751,0,0,1-1.015,0V34.29135L23.643,35.109a.49882.49882,0,1,1-.67668-.73306l1.71988-1.5789a.58576.58576,0,0,1,.33834-.141.52017.52017,0,0,1,.33833.141l1.71988,1.55071a.49444.49444,0,0,1,.02819.70486A.45487.45487,0,0,1,26.4625,35.109Z"/>
    <circle class="cls-2" cx="25.02457" cy="41.1889" r="1.46595"/>
    <path class="cls-1" d="M32.78008,25.95906l-.81765.90223h3.66531a.50751.50751,0,1,1,0,1.015H31.96243l.81765.90223a.49882.49882,0,0,1-.73306.67668l-1.57891-1.71988a.58581.58581,0,0,1-.141-.33834.52021.52021,0,0,1,.141-.33833l1.55071-1.71988a.49445.49445,0,0,1,.70487-.02819A.45487.45487,0,0,1,32.78008,25.95906Z"/>
    <circle class="cls-2" cx="38.85998" cy="27.39699" r="1.46595"/>
  </g>
</svg>
