<?xml version="1.0" encoding="utf-8"?>
<!-- Generator: Adobe Illustrator 25.3.1, SVG Export Plug-In . SVG Version: 6.00 Build 0)  -->
<svg version="1.1" id="Layer_1" xmlns="http://www.w3.org/2000/svg" xmlns:xlink="http://www.w3.org/1999/xlink" x="0px" y="0px"
	 viewBox="0 0 45 45" style="enable-background:new 0 0 45 45;" xml:space="preserve">
<style type="text/css">
	.st0{fill:#FFFFFF;}
</style>
<path class="st0" d="M35,31c-6.4-1.6-8.1-3.6-8.5-4.5l0,0c0.6-0.3,1.1-0.7,1.5-1.2c3-3.4,2.5-9.2,2.4-9.7c-0.3-6.6-5.1-8.2-7.9-8.1
	c-2.8-0.1-7.6,1.5-7.9,8.1c-0.1,0.5-0.6,6.3,2.4,9.7c0.5,0.5,1,0.9,1.6,1.3c-0.4,0.9-2,3-8.5,4.6c-2.2,0.5-3.5,2.6-3.5,5.6
	c0,0.5,0.4,0.8,0.8,0.8c0,0,0,0,0.1,0l0,0c0.4,0,0.8-0.4,0.8-0.8c0-1.5,0.4-3.5,2.2-4c6.9-1.7,9-4.1,9.7-5.5
	c0.7,0.2,1.5,0.3,2.3,0.4h0.2c0.9,0,1.7-0.1,2.6-0.4c0.7,1.4,2.9,3.8,9.6,5.4c1.8,0.5,2.2,2.5,2.2,4c0,0.5,0.4,0.8,0.8,0.8
	s0.8-0.4,0.8-0.8C38.5,33.6,37.3,31.6,35,31z M22.5,25.9h-0.1c-1.8,0-3.2-0.6-4.2-1.8c-2.6-2.9-2-8.4-2-8.5v-0.1
	c0.1-2.8,1.2-4.7,3-5.7c1-0.5,2-0.8,3.1-0.8h0.2c1.1,0,2.2,0.2,3.2,0.8c1.9,1,2.9,3,3,5.7v0.1c0,0.1,0.6,5.5-2,8.5
	C25.7,25.3,24.4,25.9,22.5,25.9z"/>
</svg>
