<?xml version="1.0" encoding="utf-8"?>
<!-- Generator: Adobe Illustrator 25.3.1, SVG Export Plug-In . SVG Version: 6.00 Build 0)  -->
<svg version="1.1" id="Layer_1" xmlns="http://www.w3.org/2000/svg" xmlns:xlink="http://www.w3.org/1999/xlink" x="0px" y="0px"
	 viewBox="0 0 45 45" style="enable-background:new 0 0 45 45;" xml:space="preserve">
<style type="text/css">
	.st0{fill:none;stroke:#FFFFFF;stroke-miterlimit:10;}
	.st1{fill:none;stroke:#FFFFFF;stroke-width:1.2;stroke-miterlimit:10;}
</style>
<path class="st0" d="M21.7,33.5l-10.5-8.2l-2.4,1.8c-0.5,0.4-0.6,1.2-0.2,1.7c0.1,0.1,0.1,0.2,0.2,0.2l12.8,10
	c0.4,0.3,1.1,0.3,1.5,0l12.8-10c0.5-0.4,0.6-1.2,0.2-1.7c-0.1-0.1-0.1-0.2-0.2-0.2l-2.4-1.8l-10.5,8.2
	C22.8,33.8,22.2,33.8,21.7,33.5z"/>
<path class="st1" d="M14.9,22.5l-3.6-2.8l-2.4,1.8c-0.5,0.4-0.6,1.2-0.2,1.7c0.1,0.1,0.1,0.2,0.2,0.2l2.4,1.8"/>
<path class="st1" d="M33.7,25.3l2.4-1.8c0.5-0.4,0.6-1.2,0.2-1.7c-0.1-0.1-0.1-0.2-0.2-0.2l-2.4-1.8l-3.6,2.8"/>
<path class="st1" d="M30.1,22.5l-6.9,5.3c-0.4,0.3-1.1,0.3-1.5,0l-6.9-5.3"/>
<path class="st1" d="M11.3,25.3l10.5,8.2c0.4,0.3,1.1,0.3,1.5,0l10.5-8.2"/>
<path class="st1" d="M33.7,19.7l2.4-1.8c0.5-0.4,0.6-1.2,0.2-1.7c-0.1-0.1-0.1-0.2-0.2-0.2l-12.8-10c-0.4-0.3-1.1-0.3-1.5,0
	l-12.8,10c-0.5,0.4-0.6,1.2-0.2,1.7c0.1,0.1,0.1,0.2,0.2,0.2l2.4,1.8"/>
<line class="st1" x1="30.1" y1="22.5" x2="33.7" y2="19.7"/>
<line class="st1" x1="11.3" y1="19.7" x2="14.9" y2="22.5"/>
<path class="st1" d="M14.9,22.5l6.9,5.3c0.4,0.3,1.1,0.3,1.5,0l6.9-5.3"/>
</svg>
