<?xml version="1.0" encoding="utf-8"?>
<!-- Generator: Adobe Illustrator 25.3.1, SVG Export Plug-In . SVG Version: 6.00 Build 0)  -->
<svg version="1.1" id="Layer_1" xmlns="http://www.w3.org/2000/svg" xmlns:xlink="http://www.w3.org/1999/xlink" x="0px" y="0px"
	 viewBox="0 0 45 45" style="enable-background:new 0 0 45 45;" xml:space="preserve">
<style type="text/css">
	.st0{fill:none;stroke:#FFFFFF;stroke-width:0.8;stroke-miterlimit:10;}
	.st1{fill:none;stroke:#FFFFFF;stroke-linecap:round;stroke-linejoin:round;}
</style>
<path class="st0" d="M28.1,29.5c-0.1,0.5-0.4,0.9-0.8,1.2c-1.8,1-5.3-1.8-8-6.4c-1.3-2.2-2.1-4.5-2.4-6.3"/>
<path class="st0" d="M16.9,15.5c0.1-0.5,0.4-0.9,0.8-1.2c1.8-1,5.3,1.8,8,6.4c1.2,2.1,2,4.2,2.4,6"/>
<circle class="st0" cx="16.8" cy="17" r="1.3"/>
<circle class="st0" cx="28.2" cy="28" r="1.3"/>
<path class="st0" d="M31.4,21.2c0.4,0.3,0.6,0.8,0.6,1.3c0,2-4.3,3.7-9.5,3.7c-2.6,0-4.9-0.4-6.6-1"/>
<path class="st0" d="M13.6,23.8C13.2,23.5,13,23,13,22.5c0-2.1,4.3-3.7,9.5-3.7c2.4,0,4.7,0.4,6.4,1"/>
<circle class="st0" cx="14.8" cy="24.7" r="1.3"/>
<circle class="st0" cx="30.2" cy="20.3" r="1.3"/>
<path class="st0" d="M25.8,14.1c0.5-0.2,1-0.1,1.5,0.1c1.8,1,1.1,5.5-1.5,10.1c-1.3,2.2-2.8,4.1-4.2,5.2"/>
<path class="st0" d="M19.2,30.9c-0.5,0.2-1,0.1-1.5-0.1c-1.8-1-1.1-5.5,1.5-10.1c1.2-2.1,2.7-3.9,4-5"/>
<circle class="st0" cx="20.6" cy="30.2" r="1.3"/>
<circle class="st0" cx="24.4" cy="14.8" r="1.3"/>
<path class="st1" d="M30.2,11.5c-1,0-1.9-0.9-1.9-1.9V4.7H11.7c-1,0-1.9,0.9-1.9,1.9v31.7c0,1,0.8,1.9,1.9,1.9h21.6
	c1,0,1.9-0.9,1.9-1.9V11.5H30.2z"/>
<path class="st1" d="M35.2,11.5v26.9c0,1-0.8,1.9-1.9,1.9H11.7c-1,0-1.9-0.9-1.9-1.9V6.6c0-1,0.8-1.9,1.9-1.9h16.6L35.2,11.5z"/>
<path class="st1" d="M30.2,11.5c-1,0-1.9-0.9-1.9-1.9V4.7H11.7c-1,0-1.9,0.9-1.9,1.9v31.7c0,1,0.8,1.9,1.9,1.9h21.6
	c1,0,1.9-0.9,1.9-1.9V11.5H30.2z"/>
</svg>
