<?xml version="1.0" encoding="utf-8"?>
<!-- Generator: Adobe Illustrator 25.3.1, SVG Export Plug-In . SVG Version: 6.00 Build 0)  -->
<svg version="1.1" id="Layer_1" xmlns="http://www.w3.org/2000/svg" xmlns:xlink="http://www.w3.org/1999/xlink" x="0px" y="0px"
	 viewBox="0 0 45 45" style="enable-background:new 0 0 45 45;" xml:space="preserve">
<style type="text/css">
	.st0{fill:#F9F9F9;}
	.st1{fill:none;}
	.st2{fill:#FFFFFF;}
</style>
<path class="st0" d="M37.2,31.3l-5.7-5.5c-0.5-0.5-1.3-0.5-1.8,0l-0.2,0.2l-1.3-1.3c2.4-2.8,2.1-7-0.7-9.4s-7-2.1-9.4,0.7
	s-2.1,7,0.7,9.4c2.5,2.2,6.3,2.2,8.8,0l1.3,1.3L28.5,27c-0.5,0.5-0.5,1.3,0,1.8l5.5,5.7c0.4,0.4,1,0.7,1.6,0.7h0
	c1.3,0,2.3-1,2.3-2.3C37.9,32.3,37.6,31.7,37.2,31.3L37.2,31.3z M23.1,26.1c-3.2,0-5.7-2.6-5.7-5.8c0-3.2,2.6-5.7,5.8-5.7
	c3.2,0,5.7,2.6,5.7,5.8c0,1.5-0.6,3-1.7,4.1C26,25.5,24.6,26.1,23.1,26.1z M36.6,33.9c-0.5,0.5-1.3,0.5-1.9,0c0,0,0,0,0,0l-5.5-5.7
	c-0.1-0.1-0.1-0.3,0-0.5l1.1-1.1c0.1-0.1,0.3-0.1,0.5,0l5.7,5.5C37,32.5,37.1,33.3,36.6,33.9C36.6,33.9,36.6,33.9,36.6,33.9
	L36.6,33.9z"/>
<path class="st1" d="M32.9,30.5c0.4,0,0.6-0.3,0.7-0.7l-1.4-1.3c0,0.2,0,0.3,0,0.4C32.2,29.4,32.2,30.5,32.9,30.5z"/>
<path class="st1" d="M31.3,27.6l-0.7-0.7l-1,1l1.6,1.6c0-0.2,0-0.4,0-0.6C31.1,28.5,31.2,28.1,31.3,27.6z"/>
<path class="st1" d="M12.2,10.7c-0.7,0-0.8,1.1-0.8,1.6c0,0.5,0,1.6,0.8,1.6s0.8-1.1,0.8-1.6C13,11.8,12.9,10.7,12.2,10.7z"/>
<path class="st1" d="M28,13.9c0.7,0,0.8-1.1,0.8-1.6c0-0.5-0.1-1.6-0.8-1.6s-0.8,1.1-0.8,1.6C27.3,12.8,27.3,13.9,28,13.9z"/>
<path class="st1" d="M16.1,27.3c-0.7,0-0.8,1.1-0.8,1.6c0,0.5,0,1.6,0.8,1.6s0.8-1.1,0.8-1.6C16.9,28.4,16.9,27.3,16.1,27.3z"/>
<path class="st1" d="M33,31.5l2,2.1c0.2,0.2,0.4,0.3,0.6,0.3l0,0c0.2,0,0.5-0.1,0.6-0.3c0.2-0.2,0.3-0.4,0.3-0.6
	c0-0.2-0.1-0.5-0.3-0.6l-1.8-1.7C34.1,31.1,33.6,31.5,33,31.5z"/>
<path class="st1" d="M30.2,20.1c0,0.5,0,1-0.1,1.5c0.1-0.3,0.2-0.7,0.1-1.1C30.2,20.5,30.2,20.3,30.2,20.1z"/>
<path class="st1" d="M24.8,19c-0.7,0-0.8,1.1-0.8,1.6c0,0.5,0,1.6,0.8,1.6c0.7,0,0.8-1.1,0.8-1.6C25.5,20.1,25.5,19,24.8,19z"/>
<path class="st1" d="M9,19c-0.7,0-0.8,1.1-0.8,1.6c0,0.5,0.1,1.6,0.8,1.6s0.8-1.1,0.8-1.6C9.7,20.1,9.7,19,9,19z"/>
<path class="st1" d="M16.9,13.9c0.7,0,0.8-1.1,0.8-1.6c0-0.5,0-1.6-0.8-1.6s-0.8,1.1-0.8,1.6C16.1,12.8,16.2,13.9,16.9,13.9z"/>
<path class="st1" d="M28.1,18.8c-0.9-2.8-3.8-4.4-6.6-3.5c-1.6,0.5-2.9,1.7-3.4,3.3c0.5,0.5,0.6,1.3,0.6,2c0,0.7-0.2,1.3-0.5,1.9
	c1.2,2.7,4.3,3.9,7,2.8c1.3-0.6,2.3-1.6,2.8-2.9c-0.3-0.5-0.4-1.1-0.4-1.7C27.6,20,27.8,19.3,28.1,18.8z M21.6,22.6
	c0,0.3-0.2,0.5-0.5,0.5s-0.5-0.2-0.5-0.5c0,0,0,0,0,0v-3.5h-0.4c-0.2,0-0.5-0.2-0.5-0.4c0,0,0,0,0-0.1c0-0.3,0.2-0.5,0.4-0.5
	c0,0,0,0,0,0h1c0.2,0,0.5,0.2,0.5,0.4c0,0,0,0,0,0.1L21.6,22.6z M24.8,23.2c-1.4,0-1.8-1.4-1.8-2.5s0.4-2.6,1.8-2.6s1.8,1.4,1.8,2.6
	C26.6,21.8,26.2,23.2,24.8,23.2L24.8,23.2z"/>
<path class="st1" d="M32.7,13.9c0.7,0,0.8-1.1,0.8-1.6c0-0.5-0.1-1.6-0.8-1.6c-0.7,0-0.8,1.1-0.8,1.6C31.9,12.8,32,13.9,32.7,13.9z"
	/>
<path class="st1" d="M23.7,28.9c0,0.5,0,1.6,0.8,1.6s0.8-1.1,0.8-1.6s-0.1-1.5-0.7-1.6c-0.1,0-0.2,0.1-0.4,0.1
	C23.8,27.7,23.7,28.5,23.7,28.9z"/>
<path class="st2" d="M7.6,10.8H8v3.5c0,0.3,0.2,0.5,0.5,0.6c0.3,0,0.5-0.2,0.6-0.5c0,0,0,0,0-0.1v-3.9c0-0.2-0.2-0.5-0.4-0.5
	c0,0,0,0-0.1,0h-1c-0.3,0-0.5,0.2-0.5,0.5c0,0,0,0,0,0C7.1,10.6,7.3,10.8,7.6,10.8C7.6,10.8,7.6,10.8,7.6,10.8z"/>
<path class="st2" d="M12.2,9.8c-1.4,0-1.8,1.4-1.8,2.6s0.4,2.5,1.8,2.5s1.8-1.4,1.8-2.6S13.6,9.8,12.2,9.8z M12.2,13.9
	c-0.7,0-0.8-1.1-0.8-1.6c0-0.5,0-1.6,0.8-1.6s0.8,1.1,0.8,1.6C13,12.8,12.9,13.9,12.2,13.9z"/>
<path class="st2" d="M16.9,14.9c1.4,0,1.8-1.4,1.8-2.6s-0.4-2.6-1.8-2.6S15,11.2,15,12.3S15.5,14.9,16.9,14.9z M16.9,10.7
	c0.7,0,0.8,1.1,0.8,1.6c0,0.5,0,1.6-0.8,1.6s-0.8-1.1-0.8-1.6C16.1,11.8,16.2,10.7,16.9,10.7z"/>
<path class="st2" d="M21.6,10.3c0-0.2-0.2-0.5-0.4-0.5c0,0,0,0-0.1,0h-1c-0.3,0-0.5,0.2-0.5,0.4c0,0,0,0,0,0c0,0.2,0.2,0.5,0.4,0.5
	c0,0,0,0,0.1,0h0.4v2.9c0.3-0.1,0.7-0.2,1-0.3L21.6,10.3z"/>
<path class="st2" d="M24.9,10.3c0-0.2-0.2-0.5-0.4-0.5c0,0,0,0-0.1,0h-1c-0.3,0-0.5,0.2-0.5,0.5c0,0,0,0,0,0c0,0.2,0.2,0.5,0.4,0.5
	c0,0,0,0,0.1,0h0.4v2.5c0.4,0,0.7,0.1,1,0.2V10.3z"/>
<path class="st2" d="M28,14.9c1.4,0,1.8-1.4,1.8-2.6S29.4,9.8,28,9.8s-1.8,1.4-1.8,2.6c0,0.7,0.2,1.5,0.6,2c0.2,0.1,0.4,0.3,0.6,0.4
	C27.6,14.8,27.8,14.9,28,14.9z M28,10.7c0.7,0,0.8,1.1,0.8,1.6c0,0.5-0.1,1.6-0.8,1.6s-0.8-1.1-0.8-1.6C27.3,11.8,27.3,10.7,28,10.7
	z"/>
<path class="st2" d="M32.7,14.9c1.4,0,1.8-1.4,1.8-2.6s-0.4-2.6-1.8-2.6c-1.4,0-1.8,1.4-1.8,2.6S31.3,14.9,32.7,14.9z M32.7,10.7
	c0.7,0,0.8,1.1,0.8,1.6c0,0.5-0.1,1.6-0.8,1.6c-0.7,0-0.8-1.1-0.8-1.6C31.9,11.8,32,10.7,32.7,10.7z"/>
<path class="st2" d="M9,18.1c-1.4,0-1.8,1.4-1.8,2.6c0,1.1,0.4,2.6,1.8,2.6c1.4,0,1.8-1.4,1.8-2.6C10.8,19.5,10.4,18.1,9,18.1z
	 M9,22.2c-0.7,0-0.8-1.1-0.8-1.6C8.2,20.1,8.2,19,9,19s0.8,1.1,0.8,1.6C9.7,21.1,9.7,22.2,9,22.2z"/>
<path class="st2" d="M13.3,18.2h-1c-0.3,0-0.5,0.2-0.5,0.5c0,0,0,0,0,0c0,0.2,0.2,0.5,0.4,0.5c0,0,0,0,0.1,0h0.4v3.5
	c0,0.3,0.2,0.5,0.5,0.6c0.3,0,0.5-0.2,0.6-0.5c0,0,0,0,0-0.1v-3.9C13.7,18.4,13.6,18.2,13.3,18.2C13.3,18.2,13.3,18.2,13.3,18.2z"/>
<path class="st2" d="M18.1,18.6c-0.5,1.3-0.4,2.7,0.1,3.9c0.4-0.6,0.5-1.2,0.5-1.9C18.7,19.9,18.5,19.1,18.1,18.6z"/>
<path class="st2" d="M16.3,18.2c-0.9,0.3-1.3,1.5-1.3,2.4c0,1,0.4,2.2,1.4,2.5C15.8,21.5,15.8,19.8,16.3,18.2z"/>
<path class="st2" d="M21.2,18.2h-1c-0.3,0-0.5,0.2-0.5,0.5c0,0,0,0,0,0c0,0.2,0.2,0.5,0.4,0.5c0,0,0,0,0.1,0h0.4v3.5
	c0,0.3,0.2,0.5,0.5,0.5c0.3,0,0.5-0.2,0.5-0.5c0,0,0,0,0,0v-3.9C21.6,18.4,21.5,18.2,21.2,18.2C21.2,18.2,21.2,18.2,21.2,18.2z"/>
<path class="st2" d="M24.8,18.1c-1.4,0-1.8,1.4-1.8,2.6c0,1.1,0.4,2.6,1.8,2.6c1.4,0,1.8-1.4,1.8-2.6C26.6,19.5,26.2,18.1,24.8,18.1
	z M24.8,22.2c-0.7,0-0.8-1.1-0.8-1.6c0-0.5,0-1.6,0.8-1.6c0.7,0,0.8,1.1,0.8,1.6C25.5,21.1,25.5,22.2,24.8,22.2z"/>
<path class="st2" d="M30.2,20.1c0,0.2,0,0.4,0,0.5c0,0.4,0,0.7-0.1,1.1c-0.1,0.5-0.2,1-0.4,1.5c1.3-0.1,1.7-1.4,1.7-2.5
	c0-1-0.4-2.3-1.5-2.5C30,18.8,30.1,19.5,30.2,20.1z"/>
<path class="st2" d="M28.1,18.8c-0.3,0.6-0.5,1.2-0.5,1.8c0,0.6,0.1,1.2,0.4,1.7C28.5,21.2,28.5,19.9,28.1,18.8L28.1,18.8z"/>
<path class="st2" d="M33.7,23.1c0.3,0,0.5-0.2,0.5-0.5c0,0,0,0,0-0.1v-3.9c0-0.2-0.2-0.5-0.4-0.5c0,0,0,0-0.1,0h-1
	c-0.3,0-0.5,0.2-0.5,0.5c0,0,0,0,0,0c0,0.2,0.2,0.5,0.4,0.5c0,0,0,0,0.1,0h0.4v3.5C33.1,22.9,33.3,23.1,33.7,23.1
	C33.6,23.1,33.7,23.1,33.7,23.1z"/>
<path class="st2" d="M8.6,26.5h-1c-0.3,0-0.5,0.2-0.5,0.5c0,0,0,0,0,0c0,0.2,0.2,0.5,0.4,0.5c0,0,0,0,0.1,0H8v3.5
	c0,0.3,0.2,0.5,0.5,0.6C8.8,31.5,9,31.3,9,31c0,0,0,0,0-0.1v-4C9.1,26.7,8.9,26.5,8.6,26.5C8.6,26.5,8.6,26.5,8.6,26.5z"/>
<path class="st2" d="M12.1,26.5h-1c-0.3,0-0.5,0.2-0.5,0.5c0,0,0,0,0,0c0,0.2,0.2,0.5,0.4,0.5c0,0,0,0,0.1,0h0.4v3.5
	c0,0.3,0.2,0.5,0.5,0.6c0.3,0,0.5-0.2,0.6-0.5c0,0,0,0,0-0.1v-4C12.6,26.7,12.4,26.5,12.1,26.5C12.2,26.5,12.1,26.5,12.1,26.5z"/>
<path class="st2" d="M16.1,26.4c-1.4,0-1.8,1.4-1.8,2.6s0.4,2.6,1.8,2.6s1.8-1.4,1.8-2.6S17.5,26.4,16.1,26.4z M16.1,30.5
	c-0.7,0-0.8-1.1-0.8-1.6c0-0.5,0-1.6,0.8-1.6s0.8,1.1,0.8,1.6C16.9,29.4,16.9,30.5,16.1,30.5z"/>
<path class="st2" d="M19.3,26.9c0,0.2,0.2,0.5,0.4,0.5c0,0,0,0,0.1,0h0.4v3.5c0,0.3,0.2,0.5,0.5,0.6c0.3,0,0.5-0.2,0.6-0.5
	c0,0,0,0,0-0.1v-3.6c-0.6-0.2-1.2-0.4-1.7-0.7C19.4,26.6,19.3,26.8,19.3,26.9z"/>
<path class="st2" d="M25.2,28.9c0,0.5,0,1.6-0.8,1.6c-0.7,0-0.8-1.1-0.8-1.6c0-0.4,0.1-1.2,0.5-1.5c-0.4,0.1-0.8,0.1-1.1,0.1
	c-0.1,0-0.1,0-0.2,0c-0.2,0.4-0.3,0.9-0.3,1.4c0,1.1,0.4,2.5,1.8,2.5c1.4,0,1.8-1.4,1.8-2.5c0-0.7-0.2-1.4-0.6-1.9
	c-0.4,0.2-0.8,0.3-1.2,0.4C25.2,27.4,25.2,28.4,25.2,28.9z"/>
<path class="st2" d="M28.3,30.9c0,0.3,0.2,0.5,0.5,0.6c0.3,0,0.5-0.2,0.6-0.5c0,0,0,0,0-0.1v-0.6l-1-1.1V30.9z"/>
<path class="st2" d="M27.9,26.5c-0.2,0-0.4,0.2-0.4,0.4c0,0.2,0.1,0.4,0.4,0.4c0.1-0.2,0.2-0.4,0.3-0.6L27.9,26.5z"/>
<path class="st2" d="M32.9,30.5c-0.7,0-0.8-1.1-0.8-1.6c0-0.1,0-0.3,0-0.4l-0.9-0.9c-0.1,0.4-0.2,0.8-0.2,1.3c0,0.2,0,0.4,0,0.6
	l1.9,1.9c0.6,0,1.1-0.3,1.4-0.9l-0.8-0.8C33.5,30.2,33.3,30.5,32.9,30.5z"/>
<path class="st2" d="M32.9,26.4c-0.1,0-0.2,0-0.3,0l2.1,2C34.6,27.4,34.1,26.4,32.9,26.4z"/>
<path class="st2" d="M24.5,27.3c-0.1,0-0.2,0.1-0.3,0.1C24.3,27.4,24.4,27.4,24.5,27.3C24.5,27.3,24.5,27.3,24.5,27.3z"/>
<path class="st2" d="M27.4,14.7c-0.2-0.2-0.4-0.3-0.6-0.4C27,14.5,27.2,14.7,27.4,14.7z"/>
</svg>
