<?xml version="1.0" encoding="utf-8"?>
<!-- Generator: Adobe Illustrator 25.3.1, SVG Export Plug-In . SVG Version: 6.00 Build 0)  -->
<svg version="1.1" id="Layer_1" xmlns="http://www.w3.org/2000/svg" xmlns:xlink="http://www.w3.org/1999/xlink" x="0px" y="0px"
	 viewBox="0 0 45 45" style="enable-background:new 0 0 45 45;" xml:space="preserve">
<style type="text/css">
	.st0{fill:none;stroke:#FFFFFF;stroke-linejoin:round;}
</style>
<line class="st0" x1="22.8" y1="22.5" x2="34.4" y2="22.5"/>
<circle class="st0" cx="36" cy="22.5" r="1.8"/>
<line class="st0" x1="22.8" y1="27.9" x2="27.5" y2="27.9"/>
<circle class="st0" cx="29.1" cy="27.9" r="1.8"/>
<line class="st0" x1="22.8" y1="33.2" x2="31.6" y2="33.2"/>
<circle class="st0" cx="33.2" cy="33.2" r="1.8"/>
<line class="st0" x1="22.8" y1="17.1" x2="27.5" y2="17.1"/>
<circle class="st0" cx="29.1" cy="17.1" r="1.8"/>
<line class="st0" x1="22.8" y1="11.8" x2="31.6" y2="11.8"/>
<circle class="st0" cx="33.2" cy="11.8" r="1.8"/>
<path class="st0" d="M22.8,7.5h-1.6c-0.3,0-0.6,0.2-0.6,0.6l-0.3,2.7c-1.8,0.3-3.4,1-4.9,2l-2.1-1.7c-0.3-0.2-0.6-0.2-0.9,0.1
	l-1.4,1.4c-0.2,0.2-0.3,0.6-0.1,0.9l1.7,2.1c-1,1.5-1.7,3.2-2,4.9l-2.7,0.3c-0.3,0-0.6,0.3-0.6,0.6v2c0,0.3,0.2,0.6,0.6,0.7l2.7,0.3
	c0.3,1.8,1,3.4,2,4.9l-1.7,2.1c-0.2,0.3-0.2,0.6,0.1,0.9l1.4,1.4c0.2,0.2,0.6,0.3,0.9,0.1l2.1-1.7c1.5,1,3.1,1.7,4.9,2l0.3,2.7
	c0,0.3,0.3,0.6,0.6,0.6h1.6L22.8,7.5z"/>
<path class="st0" d="M22.8,29.8c-0.2,0-0.4,0-0.7,0c-4,0.1-7.4-3-7.5-7.1c-0.1-4,3-7.4,7.1-7.5c0.2,0,0.3,0,0.5,0c0.2,0,0.4,0,0.6,0
	"/>
</svg>
