<?xml version="1.0" encoding="utf-8"?>
<!-- Generator: Adobe Illustrator 25.3.1, SVG Export Plug-In . SVG Version: 6.00 Build 0)  -->
<svg version="1.1" id="Layer_1" xmlns="http://www.w3.org/2000/svg" xmlns:xlink="http://www.w3.org/1999/xlink" x="0px" y="0px"
	 viewBox="0 0 45 45" style="enable-background:new 0 0 45 45;" xml:space="preserve">
<style type="text/css">
	.st0{fill:none;stroke:#FFFFFF;stroke-width:0.878;stroke-linecap:round;stroke-linejoin:round;}
	.st1{fill:none;stroke:#FFFFFF;stroke-width:1.2;stroke-miterlimit:10;}
	.st2{fill:#FFFFFF;}
</style>
<path class="st0" d="M17.6,24.4c-3.7,0-6.8-2.9-6.8-6.5s3-6.5,6.8-6.5s6.8,2.9,6.8,6.5c0,0.6-0.1,1.2-0.3,1.8"/>
<path class="st0" d="M17.6,24.4c3.7,0,6.8-2.9,6.8-6.5"/>
<path class="st0" d="M22.7,13.6c-1.2,0.7-3.1,1.1-5.1,1.1s-3.9-0.4-5.1-1.1"/>
<path class="st0" d="M17.6,21c-2,0-3.9,0.4-5.1,1.1"/>
<path class="st0" d="M17.6,21c2,0,3.9,0.4,5.1,1.1"/>
<path class="st0" d="M17.6,24.4c-1.9,0-3.4-2.9-3.4-6.5s1.5-6.5,3.4-6.5s3.4,2.9,3.4,6.5"/>
<path class="st0" d="M17.6,24.4c-1.9,0-3.4-2.9-3.4-6.5"/>
<path class="st0" d="M17.6,24.4c1.9,0,3.4-2.9,3.4-6.5"/>
<line class="st0" x1="17.6" y1="11.4" x2="17.6" y2="24.3"/>
<line class="st0" x1="10.8" y1="17.8" x2="24.3" y2="17.8"/>
<line class="st1" x1="23.6" y1="23.8" x2="26.5" y2="26.6"/>
<path class="st1" d="M36.3,36.1L36.3,36.1c-1,0.9-2.5,0.9-3.5,0l-7.4-7.5c-0.4-0.4-0.4-1.1,0-1.5c0,0,0,0,0,0l1.5-1.5
	c0.4-0.4,1.1-0.4,1.5,0l7.8,7.2c0.9,0.8,1,2.3,0.2,3.2C36.4,36,36.3,36,36.3,36.1z"/>
<path class="st2" d="M17.5,9.5c4.6,0,8.4,3.7,8.4,8.4s-3.7,8.4-8.4,8.4s-8.4-3.7-8.4-8.4c0,0,0,0,0,0C9.2,13.2,12.9,9.5,17.5,9.5
	 M17.5,8.3c-5.3,0-9.6,4.3-9.6,9.6s4.3,9.6,9.6,9.6s9.6-4.3,9.6-9.6S22.8,8.3,17.5,8.3C17.5,8.3,17.5,8.3,17.5,8.3z"/>
</svg>
