<?xml version="1.0" encoding="utf-8"?>
<!-- Generator: Adobe Illustrator 25.3.1, SVG Export Plug-In . SVG Version: 6.00 Build 0)  -->
<svg version="1.1" id="Layer_1" xmlns="http://www.w3.org/2000/svg" xmlns:xlink="http://www.w3.org/1999/xlink" x="0px" y="0px"
	 viewBox="0 0 45 45" style="enable-background:new 0 0 45 45;" xml:space="preserve">
<style type="text/css">
	.st0{fill:none;stroke:#FFFFFF;stroke-linejoin:round;}
	.st1{fill:#FFFFFF;}
</style>
<path class="st0" d="M29.7,22.8l-1.5-0.9c0.3-1.4,0.3-2.8,0-4.1l1.5-0.9c0.6-0.3,0.8-1.1,0.5-1.7c0,0,0,0,0,0l-1.3-2.3
	c-0.3-0.6-1.1-0.8-1.7-0.5l-1.5,0.9c-1-1-2.3-1.7-3.6-2.1V9.5c0-0.7-0.6-1.3-1.3-1.3h-2.6c-0.7,0-1.3,0.6-1.3,1.3v1.7
	c-1.4,0.4-2.6,1.1-3.6,2.1l-1.5-0.8c-0.6-0.3-1.4-0.1-1.7,0.5l-1.3,2.3c-0.3,0.6-0.1,1.4,0.5,1.7c0,0,0,0,0,0l1.5,0.9
	c-0.3,1.4-0.3,2.8,0,4.2l-1.5,0.9c-0.6,0.3-0.8,1.1-0.5,1.7c0,0,0,0,0,0l1.3,2.3c0.3,0.6,1.1,0.8,1.7,0.5l1.5-0.9
	c1,0.9,2.2,1.6,3.6,2v1.8c0,0.7,0.6,1.3,1.2,1.3c0,0,0,0,0,0h2.6c0.7,0,1.3-0.6,1.3-1.3v-1.8c1.3-0.4,2.5-1.1,3.5-2l1.6,0.9
	c0.6,0.3,1.4,0.1,1.7-0.5l1.3-2.3C30.5,24,30.3,23.2,29.7,22.8C29.7,22.8,29.7,22.8,29.7,22.8z M19.5,23.8c-2.2,0-4-1.8-4-4
	s1.8-4,4-4c2.2,0,4,1.8,4,4c0,0,0,0,0,0C23.4,22.1,21.6,23.9,19.5,23.8L19.5,23.8z"/>
<path class="st1" d="M35.6,28.9c0.4,0,0.6,0.3,0.6,0.6l0,0v0.9c0.7,0.2,1.3,0.6,1.8,1.1l0.8-0.4c0.3-0.2,0.7-0.1,0.9,0.2
	c0,0,0,0,0,0l0.7,1.2c0.2,0.3,0.1,0.7-0.2,0.9c0,0,0,0,0,0l-0.8,0.4c0.1,0.3,0.1,0.7,0.1,1c0,0.4,0,0.7-0.1,1.1l0.8,0.5
	c0.3,0.2,0.4,0.6,0.2,0.9c0,0,0,0,0,0l-0.7,1.2c-0.2,0.3-0.6,0.4-0.9,0.2c0,0,0,0,0,0L38,38.1c-0.5,0.5-1.1,0.8-1.8,1v0.9
	c0,0.4-0.3,0.6-0.6,0.6l0,0h-1.3c-0.4,0-0.6-0.3-0.6-0.6l0,0v-0.9c-0.7-0.2-1.3-0.6-1.8-1L31,38.6c-0.3,0.2-0.7,0.1-0.9-0.2
	c0,0,0,0,0,0l-0.7-1.2c-0.2-0.3-0.1-0.7,0.2-0.9c0,0,0,0,0,0l0.8-0.4c-0.1-0.4-0.1-0.7-0.1-1.1c0-0.3,0-0.7,0.1-1l-0.7-0.4
	c-0.3-0.2-0.4-0.6-0.2-0.9c0,0,0,0,0,0l0.7-1.2c0.2-0.3,0.6-0.4,0.9-0.2c0,0,0,0,0,0l0.7,0.4c0.5-0.5,1.2-0.9,1.9-1.1v-0.9
	c0-0.4,0.3-0.6,0.6-0.6l0,0H35.6 M34.9,36.8c1.1,0,2-0.9,2-2c0-1.1-0.9-2-2-2c-1.1,0-2,0.9-2,2c0,0,0,0,0,0
	C32.9,35.9,33.8,36.8,34.9,36.8 M35.6,27.9h-1.3c-0.9,0-1.6,0.7-1.6,1.6l0,0v0.2c-0.3,0.2-0.7,0.3-1,0.6l-0.1-0.1
	c-0.8-0.5-1.8-0.2-2.2,0.6c0,0,0,0,0,0L28.6,32c-0.5,0.8-0.2,1.8,0.6,2.2c0,0,0,0,0,0l0.2,0.1c0,0.2,0,0.3,0,0.5c0,0.2,0,0.4,0,0.6
	l-0.2,0.1c-0.8,0.5-1.1,1.5-0.6,2.2l0.7,1.2c0.5,0.8,1.5,1.1,2.2,0.6c0,0,0,0,0,0l0.2-0.1c0.3,0.2,0.6,0.4,0.9,0.5v0.2
	c0,0.9,0.7,1.6,1.6,1.6h1.3c0.9,0,1.6-0.7,1.6-1.6v-0.2c0.3-0.1,0.6-0.3,0.9-0.5l0.2,0.1c0.8,0.5,1.8,0.2,2.2-0.6c0,0,0,0,0,0
	l0.7-1.2c0.5-0.8,0.2-1.8-0.6-2.2l-0.2-0.1c0-0.2,0-0.4,0-0.6c0-0.2,0-0.3,0-0.5l0.2-0.1c0.8-0.5,1.1-1.5,0.6-2.2l-0.7-1.2
	c-0.4-0.8-1.4-1.1-2.2-0.6c0,0,0,0,0,0l-0.2,0.1c-0.3-0.2-0.6-0.4-0.9-0.5v-0.2C37.3,28.7,36.5,27.9,35.6,27.9L35.6,27.9L35.6,27.9z
	 M34.9,35.8c-0.6,0-1-0.5-1-1s0.5-1,1-1c0.6,0,1,0.5,1,1l0,0C35.9,35.4,35.5,35.8,34.9,35.8z"/>
</svg>
