<?xml version="1.0" encoding="utf-8"?>
<!-- Generator: Adobe Illustrator 25.3.1, SVG Export Plug-In . SVG Version: 6.00 Build 0)  -->
<svg version="1.1" id="Layer_1" xmlns="http://www.w3.org/2000/svg" xmlns:xlink="http://www.w3.org/1999/xlink" x="0px" y="0px"
	 viewBox="0 0 45 45" style="enable-background:new 0 0 45 45;" xml:space="preserve">
<style type="text/css">
	.st0{fill:none;stroke:#FFFFFF;stroke-width:0.79;stroke-linecap:round;stroke-miterlimit:10;}
	.st1{fill:none;stroke:#FFFFFF;stroke-width:0.79;stroke-miterlimit:10;}
	.st2{fill:none;stroke:#FFFFFF;stroke-width:0.79;stroke-linecap:round;stroke-linejoin:round;}
	.st3{fill:none;stroke:#FFFFFF;stroke-width:0.374;stroke-linecap:round;stroke-linejoin:round;}
	.st4{fill:#FFFFFF;}
	.st5{fill:#FFFFFF;stroke:#FFFFFF;stroke-width:3.800000e-02;stroke-miterlimit:10;}
	.st6{fill:none;stroke:#FFFFFF;stroke-width:0.436;stroke-linejoin:round;}
	.st7{fill:none;stroke:#FFFFFF;stroke-width:0.178;stroke-miterlimit:10;}
</style>
<path class="st0" d="M17.2,7.7H8c-1.5,0-2.8,1.2-2.8,2.8l0,0v17.8c0,1.5,1.2,2.8,2.8,2.8l0,0H37c1.5,0,2.8-1.2,2.8-2.8l0,0V10.5
	c0-1.5-1.2-2.8-2.8-2.8l0,0C37,7.7,17.2,7.7,17.2,7.7z"/>
<line class="st1" x1="39.7" y1="27.1" x2="5.3" y2="27.1"/>
<path class="st2" d="M25.1,31.1v3.4l2.3,2.3c0.1,0.1,0.1,0.3,0,0.4c-0.1,0.1-0.1,0.1-0.2,0.1h-9.3c-0.1,0-0.3-0.1-0.3-0.3
	c0-0.1,0-0.1,0.1-0.2l2.3-2.3v-3.4"/>
<line class="st3" x1="15.5" y1="24.4" x2="21.7" y2="24.4"/>
<polygon class="st4" points="21.6,24.8 22.3,24.4 21.6,24 "/>
<line class="st3" x1="15.5" y1="19.2" x2="15.5" y2="24.4"/>
<polygon class="st4" points="15.1,19.3 15.5,18.6 15.9,19.3 "/>
<polyline class="st3" points="16.8,21.5 16.8,23.4 18.1,23.4 18.1,21.5 "/>
<polyline class="st3" points="18.1,21.5 18.1,19.5 16.8,19.5 16.8,21.5 "/>
<polyline class="st3" points="19.2,22.5 19.2,23.4 20.5,23.4 20.5,22.5 "/>
<polyline class="st3" points="20.5,22.5 20.5,21.1 19.2,21.1 19.2,22.5 "/>
<path class="st5" d="M26.9,18.6c1.7,0,3.1,1.4,3.1,3.1c0,1.7-1.4,3.1-3.1,3.1c-1.1,0-2.2-0.6-2.7-1.6l0.8-0.4c0.6,1.1,1.9,1.4,3,0.9
	c1.1-0.6,1.4-1.9,0.9-3c-0.4-0.7-1.1-1.1-1.9-1.1V18.6z"/>
<path class="st6" d="M26.9,18.6c1.7,0,3.1,1.4,3.1,3.1c0,1.7-1.4,3.1-3.1,3.1c-1.1,0-2.2-0.6-2.7-1.6"/>
<path class="st6" d="M26.9,19.5c1.2,0,2.2,1,2.2,2.2c0,1.2-1,2.2-2.2,2.2c-0.8,0-1.5-0.4-1.9-1.1"/>
<path class="st4" d="M18.5,17.2c-1.9,0-3.5-1.5-3.5-3.5c0-1.9,1.5-3.5,3.5-3.5s3.5,1.5,3.5,3.5c0,0,0,0,0,0
	C21.9,15.7,20.4,17.2,18.5,17.2z M18.5,10.6c-1.8,0-3.2,1.4-3.2,3.2c0,1.8,1.4,3.2,3.2,3.2c1.8,0,3.2-1.4,3.2-3.2c0,0,0,0,0,0
	C21.6,12,20.2,10.6,18.5,10.6z"/>
<circle class="st7" cx="18.5" cy="11.3" r="0.2"/>
<circle class="st7" cx="20.2" cy="12" r="0.2"/>
<circle class="st7" cx="20.9" cy="13.7" r="0.2"/>
<circle class="st7" cx="20.2" cy="15.5" r="0.2"/>
<circle class="st7" cx="18.5" cy="16.2" r="0.2"/>
<circle class="st7" cx="16.7" cy="15.5" r="0.2"/>
<circle class="st7" cx="16" cy="13.7" r="0.2"/>
<circle class="st7" cx="16.7" cy="12" r="0.2"/>
<path class="st4" d="M18,14.2c-0.2-0.2-0.2-0.6,0-0.8c0,0,0,0,0,0c0.2-0.2,1.5-0.8,1.6-0.9c0,0,0.1,0,0.1,0l0,0c0,0,0,0.1,0,0.1
	c-0.1,0.1-0.7,1.4-0.9,1.6C18.7,14.4,18.3,14.4,18,14.2C18.1,14.2,18,14.2,18,14.2z M19.4,12.8c-0.4,0.2-0.8,0.4-1.2,0.7
	c-0.1,0.1-0.1,0.4,0,0.5c0.1,0.1,0.4,0.1,0.5,0C19,13.6,19.2,13.2,19.4,12.8z"/>
<line class="st3" x1="24.9" y1="12.7" x2="24.9" y2="16.5"/>
<line class="st3" x1="24.9" y1="11" x2="24.9" y2="11.3"/>
<circle class="st3" cx="24.9" cy="12" r="0.6"/>
<line class="st3" x1="26.9" y1="14.4" x2="26.9" y2="16.5"/>
<line class="st3" x1="26.9" y1="11" x2="26.9" y2="13.1"/>
<circle class="st3" cx="26.9" cy="13.8" r="0.6"/>
<line class="st3" x1="28.9" y1="14.8" x2="28.9" y2="11"/>
<line class="st3" x1="28.9" y1="16.5" x2="28.9" y2="16.2"/>
<circle class="st3" cx="28.9" cy="15.5" r="0.6"/>
<path class="st4" d="M26.9,18.6v0.9c-1.2,0-2.2,1-2.2,2.2c0,0.4,0.1,0.7,0.3,1l-0.8,0.4c-0.8-1.5-0.3-3.4,1.2-4.2
	C25.9,18.7,26.4,18.6,26.9,18.6 M26.9,18.3c-1.8,0-3.3,1.5-3.3,3.3c0,0.6,0.1,1.1,0.4,1.6c0,0.1,0.1,0.1,0.2,0.1c0,0,0.1,0,0.1,0
	l0.8-0.4c0.1-0.1,0.1-0.2,0.1-0.3c-0.5-1-0.2-2.1,0.8-2.7c0.3-0.2,0.6-0.2,0.9-0.2c0.1,0,0.2-0.1,0.2-0.2v-0.9
	C27.1,18.4,27,18.3,26.9,18.3L26.9,18.3z"/>
</svg>
