<svg id="Layer_1" data-name="Layer 1" xmlns="http://www.w3.org/2000/svg" viewBox="0 0 45 45">
  <defs>
    <style>
      .cls-1 {
        fill: #ffce00;
      }

      .cls-2, .cls-3, .cls-4, .cls-5 {
        fill: #525779;
        stroke: #525779;
        stroke-miterlimit: 10;
      }

      .cls-2 {
        stroke-width: 0.5px;
      }

      .cls-4 {
        stroke-width: 0.55px;
      }

      .cls-5 {
        stroke-width: 0.605px;
      }
    </style>
  </defs>
  <path class="cls-1" d="M28.23512,10.47284a.75072.75072,0,0,0-1.06045-.03527l-.19.1782L26.463,10.497a4.4338,4.4338,0,0,0,.02983-.63284.74612.74612,0,0,0,.53938-.34552l1.09613-1.78723A.75044.75044,0,1,0,26.8488,6.947L26.09624,8.174a4.3584,4.3584,0,0,0-.57451-.92511,2.31155,2.31155,0,0,0-.188-2.38216l.59716-1.1886a.75045.75045,0,0,0-1.34115-.67382l-.48915.974c-.05045-.0152-.10077-.03123-.15227-.043-.05157-.01171-.10355-.019-.15464-.02725L23.775,2.81973a.75034.75034,0,1,0-1.50046.026l.02306,1.32917A2.30784,2.30784,0,0,0,21.096,6.24226a4.34842,4.34842,0,0,0-.84713.52552l-.22384-1.41321a.75055.75055,0,0,0-1.48269.23436l.33429,2.11351a.75135.75135,0,0,0,.23624.43423,4.29735,4.29735,0,0,0-.27053.62608l-.52106-.11861-.0938-.24189a.75035.75035,0,0,0-1.39948.54183l.23736.614a.75022.75022,0,0,0,.5334.46085l1.00386.22857a4.987,4.987,0,0,0,.05463.74086l-.00425-.00007a.75061.75061,0,0,0-.59911.324L16.83974,13.072a.75037.75037,0,1,0,1.2353.85222l.99738-1.44519.05108-.00119a4.22019,4.22019,0,0,0,2.29672,2.16257.739.739,0,0,0,.0853.025.73054.73054,0,0,0,.08711.01429,4.231,4.231,0,0,0,3.03374-.97634l.11638.05924.17143,1.67823a.75064.75064,0,0,0,1.4935-.15262l-.21283-2.08458a.75064.75064,0,0,0-.40615-.59236l-.10453-.05324a4.86805,4.86805,0,0,0,.35186-.61855l1.00386.22851a.74994.74994,0,0,0,.679-.18391l.48113-.4504A.75029.75029,0,0,0,28.23512,10.47284Zm-5.6417-4.25852a.83645.83645,0,0,1,.00739-.10551l.00111-.00739A.8264.8264,0,0,1,22.6222,6l.001-.00363a.83133.83133,0,0,1,.13457-.27826l.00495-.00655a.83868.83868,0,0,1,.3092-.25207l.003-.00139a.82829.82829,0,0,1,.28544-.07624l.03-.00153c.0131-.00063.02592-.002.03909-.002l.02809.0014.033.00167c.02606.00188.05164.00509.077.00927l.01909.00293a.82824.82824,0,0,1,.09945.02529l.013.00474q.03888.01328.07589.03011l.02007.008.02021.01143c.013.00676.02557.01415.03812.02153a.81229.81229,0,0,1,.16488.12642l.00613.00634a.8379.8379,0,0,1,.13353.17757l.01247.02313a.82554.82554,0,0,1,.07248.19639l.00717.03261c.0037.01951.00676.03909.009.059.00223.01888.00328.03819.00426.05742.00041.01073.0023.02132.0023.03206l-.00042.00634.00014.0023a.851.851,0,0,1-.00683.10216l-.00175.01129a.82954.82954,0,0,1-.01846.09429l-.00314.01219a.82954.82954,0,0,1-.07728.18942l-.00523.00857a.81813.81813,0,0,1-.04732.07254l-.01226.01638a.8216.8216,0,0,1-.05422.06411l-.008.00878a.83531.83531,0,0,1-.15352.1253l-.0062.00377a.83524.83524,0,0,1-.08014.044l-.00969.00467a.83072.83072,0,0,1-.08948.03582l-.0016.00056a.81948.81948,0,0,1-.09875.02606l-.00328.00056a.85778.85778,0,0,1-.08955.012l-.03115.00154c-.01275.00063-.02522.00195-.038.00195l-.02913-.00146-.03219-.00161q-.041-.003-.08084-.00989L23.272,7.035a.81555.81555,0,0,1-.10112-.02593l-.01136-.00411a.82111.82111,0,0,1-.07826-.03129l-.01958-.0078-.00014-.00168a.835.835,0,0,1-.46775-.74357l-.00063-.00035.00035-.00481Zm2.32878,4.40946a3.276,3.276,0,0,1-3.0819,2.57115,3.27511,3.27511,0,0,1-1.664-3.65125,2.84968,2.84968,0,0,1,1.42638-1.8765,2.32634,2.32634,0,0,0,2.846.64727A2.85132,2.85132,0,0,1,24.9222,10.62378Z"/>
  <g>
    <path class="cls-2" d="M32.88,38.58855l-1.85822-4.95479a4.477,4.477,0,0,0-4.1731-2.89224H24.21422v-.68568a.68638.68638,0,0,0-.68569-.68569V23.199a1.02853,1.02853,0,1,0-2.05706,0v6.1712a.68638.68638,0,0,0-.68569.68569v.68568H18.15136a4.47759,4.47759,0,0,0-4.17344,2.8919L12.1197,38.58855a3.88888,3.88888,0,0,0-.24788,1.369,3.46935,3.46935,0,0,0,6.356,1.92438l.34147-.51221h7.86142l.34147.51221a3.46935,3.46935,0,0,0,6.356-1.92438A3.88158,3.88158,0,0,0,32.88,38.58855Zm-3.221,4.15253a2.77871,2.77871,0,0,1-2.31625-1.23938l-.54512-.81769H18.20244l-.54512.81769a2.78374,2.78374,0,0,1-5.09981-1.54417,3.19893,3.19893,0,0,1,.20468-1.128l1.85822-4.95548a3.788,3.788,0,0,1,3.531-2.44688h8.69728a3.78824,3.78824,0,0,1,3.5313,2.44723l1.85821,4.95513a3.20624,3.20624,0,0,1,.20434,1.128A2.78707,2.78707,0,0,1,29.65893,42.74108Z"/>
    <path class="cls-3" d="M18.043,34.57478a2.15992,2.15992,0,1,0,2.15992,2.15992A2.16225,2.16225,0,0,0,18.043,34.57478Zm0,3.83986A1.67994,1.67994,0,1,1,19.723,36.7347,1.6821,1.6821,0,0,1,18.043,38.41464Z"/>
    <path class="cls-3" d="M26.957,34.57478A2.15992,2.15992,0,1,0,29.1169,36.7347,2.16224,2.16224,0,0,0,26.957,34.57478Zm0,3.83986a1.67994,1.67994,0,1,1,1.67994-1.67994A1.6821,1.6821,0,0,1,26.957,38.41464Z"/>
    <path class="cls-4" d="M24.7302,23.18027h0a.37832.37832,0,0,0,.37287-.44055,2.64026,2.64026,0,0,0-5.20633-.0002.37834.37834,0,0,0,.37285.44058h0a.38288.38288,0,0,0,.37287-.32618,1.88593,1.88593,0,0,1,3.71488.00014A.3829.3829,0,0,0,24.7302,23.18027Z"/>
    <path class="cls-5" d="M18.37316,23.21244h.00129a.41264.41264,0,0,0,.41029-.37308,3.73388,3.73388,0,0,1,7.4303.00028.41265.41265,0,0,0,.41028.37311h.00129a.41462.41462,0,0,0,.41451-.4509,4.56361,4.56361,0,0,0-9.08246-.00035A.41465.41465,0,0,0,18.37316,23.21244Z"/>
  </g>
</svg>
