<svg id="Layer_1" data-name="Layer 1" xmlns="http://www.w3.org/2000/svg" viewBox="0 0 45 45">
  <defs>
    <style>
      .cls-1 {
        fill: #ffce00;
      }

      .cls-2 {
        fill: #525779;
        stroke-width: 0.54543px;
      }

      .cls-2, .cls-3 {
        stroke: #525779;
      }

      .cls-3, .cls-4 {
        fill: none;
        stroke-linecap: round;
        stroke-linejoin: round;
        stroke-width: 1.63629px;
      }

      .cls-4 {
        stroke: #ffce00;
      }
    </style>
  </defs>
  <g>
    <path class="cls-1" d="M40.944,11.989a.38337.38337,0,0,0-.54155-.018l-.097.091-.26638-.06064a2.26555,2.26555,0,0,0,.01523-.32318.38106.38106,0,0,0,.27546-.17645l.55977-.91271a.38324.38324,0,1,0-.65344-.40063l-.38433.62665a2.22591,2.22591,0,0,0-.29339-.47244,1.18052,1.18052,0,0,0-.096-1.21654l.305-.607a.38324.38324,0,0,0-.6849-.34411l-.2498.49739c-.02577-.00776-.05146-.01594-.07776-.022s-.05289-.00968-.079-.01391l-.00957-.55579A.38319.38319,0,1,0,37.9,8.094l.01178.67879a1.17864,1.17864,0,0,0-.61363,1.05578,2.22084,2.22084,0,0,0-.43262.26837l-.11431-.7217a.38329.38329,0,0,0-.75719.11968l.17072,1.07934a.38374.38374,0,0,0,.12065.22176,2.19446,2.19446,0,0,0-.13816.31973l-.26609-.06058-.04791-.12353a.38319.38319,0,0,0-.71469.27671l.12121.31354a.38313.38313,0,0,0,.2724.23535l.51266.11673a2.54763,2.54763,0,0,0,.0279.37834l-.00217,0a.3833.3833,0,0,0-.306.16549l-.62006.89865a.3832.3832,0,1,0,.63084.43522l.50935-.738.02609-.0006a2.1552,2.1552,0,0,0,1.1729,1.10439.38067.38067,0,0,0,.04356.01275.3747.3747,0,0,0,.04449.00729,2.16069,2.16069,0,0,0,1.54929-.4986l.05943.03025.08755.85705a.38334.38334,0,0,0,.76271-.07794l-.10869-1.06457a.38332.38332,0,0,0-.20741-.3025l-.05339-.02719A2.486,2.486,0,0,0,39.821,12.738l.51266.1167a.383.383,0,0,0,.34678-.09392l.2457-.23A.38317.38317,0,0,0,40.944,11.989ZM38.06286,9.81426a.42761.42761,0,0,1,.00377-.05389l.00057-.00377a.42169.42169,0,0,1,.01036-.05178l.0005-.00185a.42443.42443,0,0,1,.06872-.14211l.00253-.00334a.42832.42832,0,0,1,.1579-.12873l.00153-.00071a.42311.42311,0,0,1,.14578-.03893l.0153-.00079.02-.001.01434.00071.01687.00085c.01331.001.02637.0026.03932.00474l.00975.00149a.42191.42191,0,0,1,.05079.01292l.00665.00242q.01986.00678.03876.01537l.01025.0041.01032.00583.01947.011a.41468.41468,0,0,1,.0842.06456l.00313.00324a.42775.42775,0,0,1,.06819.09068l.00637.01181a.42105.42105,0,0,1,.037.10029l.00367.01666.00459.03011.00217.02932.00118.01637-.00022.00324.00007.00118a.43527.43527,0,0,1-.00348.05217l-.00089.00576a.42431.42431,0,0,1-.00943.04816l-.00161.00622a.42353.42353,0,0,1-.03946.09674l-.00267.00437a.41888.41888,0,0,1-.02417.03705l-.00626.00836a.42026.42026,0,0,1-.02769.03275l-.00409.00448a.42707.42707,0,0,1-.07841.064l-.00316.00192a.42714.42714,0,0,1-.04093.02249l-.005.00239a.42576.42576,0,0,1-.04569.01829l-.00082.00028a.41837.41837,0,0,1-.05043.01331l-.00167.00029a.43782.43782,0,0,1-.04574.00612l-.0159.00078-.01943.001-.01488-.00075-.01644-.00082c-.014-.001-.02773-.00274-.04129-.00505l-.00779-.00121a.41654.41654,0,0,1-.05164-.01324l-.0058-.0021a.41814.41814,0,0,1-.04-.016l-.01-.004-.00007-.00086a.4264.4264,0,0,1-.23887-.37973l-.00032-.00018.00018-.00245Zm1.18927,2.25185a1.673,1.673,0,0,1-1.57388,1.31305,1.67255,1.67255,0,0,1-.84979-1.86464,1.45531,1.45531,0,0,1,.72843-.95831,1.188,1.188,0,0,0,1.45342.33055A1.45615,1.45615,0,0,1,39.25213,12.06611Z"/>
    <g>
      <g>
        <path class="cls-2" d="M13.0706,28.26411a4.127,4.127,0,0,0,1.10482-.16247c.35744.71489,1.42976,1.78721,4.61423,2.59957.74412.17962.92091.94682.94636,1.59763a.5387.5387,0,0,0,.50778.513h0a.54036.54036,0,0,0,.57423-.55353,2.51864,2.51864,0,0,0-1.76842-2.62947c-2.892-.71488-3.67189-1.62473-3.86686-2.01467a2.76791,2.76791,0,0,0,.55241-.51991"/>
        <path class="cls-2" d="M15.08526,27.67921a3.65074,3.65074,0,0,0,.6499-.5849c1.42976-1.62474,1.2023-4.41927,1.1698-4.67923a3.73964,3.73964,0,0,0-3.89935-3.93185,3.73967,3.73967,0,0,0-3.89936,3.93185c-.03249.29245-.26,3.05449,1.16981,4.67923a2.76764,2.76764,0,0,0,.55241.51991c-.195.38994-.97484,1.29979-3.86687,2.01467a2.51866,2.51866,0,0,0-1.76842,2.62947.54037.54037,0,0,0,.57424.55353h0a.53869.53869,0,0,0,.50778-.513c.02545-.65081.20224-1.418.94636-1.59763,3.18447-.81236,4.2568-1.88468,4.61424-2.59957a4.127,4.127,0,0,0,1.10481.16247h.13a4.70324,4.70324,0,0,0,.97484-.13m.84488-1.75473a2.35825,2.35825,0,0,1-1.88469.77987h-.065a2.35825,2.35825,0,0,1-1.88469-.77987c-1.1698-1.33228-.90984-3.83436-.90984-3.86686v-.03249c.13-2.892,2.33961-2.957,2.79453-2.92452h.13c.5849,0,2.56708.22746,2.69705,2.92452v.03249S16.02762,25.04713,14.89032,26.37941Z"/>
        <path class="cls-2" d="M10.27606,27.09431a2.76764,2.76764,0,0,0,.55241.51991c-.195.38994-.97484,1.29979-3.86687,2.01467a2.51866,2.51866,0,0,0-1.76842,2.62947.54037.54037,0,0,0,.57424.55353h0a.53869.53869,0,0,0,.50778-.513c.02545-.65081.20224-1.418.94636-1.59763,3.18447-.81236,4.2568-1.88468,4.61424-2.59957a4.127,4.127,0,0,0,1.10481.16247"/>
      </g>
      <line class="cls-3" x1="23.69257" y1="31.74489" x2="35.1038" y2="31.74489"/>
      <line class="cls-3" x1="23.69257" y1="28.60563" x2="35.1038" y2="28.60563"/>
      <line class="cls-3" x1="23.69257" y1="25.46637" x2="35.1038" y2="25.46637"/>
      <line class="cls-3" x1="23.69257" y1="22.32712" x2="35.1038" y2="22.32712"/>
      <path class="cls-3" d="M33.3323,10.88151H5.2809a3.18567,3.18567,0,0,0-3.18568,3.18568V35.12084A3.18567,3.18567,0,0,0,5.2809,38.30652H35.56234A3.18567,3.18567,0,0,0,38.748,35.12084V16.307"/>
      <circle class="cls-4" cx="38.09805" cy="11.50021" r="4.80673"/>
    </g>
  </g>
</svg>
