<svg id="Layer_1" data-name="Layer 1" xmlns="http://www.w3.org/2000/svg" viewBox="0 0 45 45">
  <defs>
    <style>
      .cls-1 {
        fill: #ffce00;
      }

      .cls-2 {
        fill: #525779;
      }
    </style>
  </defs>
  <g>
    <path class="cls-1" d="M20.81727,16.67156a.84071.84071,0,0,0-1.18758-.03949l-.21282.19955-.58415-.133a4.9644,4.9644,0,0,0,.03341-.70871.8356.8356,0,0,0,.60405-.38693l1.22753-2.00148a.84041.84041,0,1,0-1.43294-.87853L18.422,14.09716a4.88035,4.88035,0,0,0-.64339-1.036,2.58861,2.58861,0,0,0-.21048-2.66773l.66875-1.3311a.84042.84042,0,0,0-1.50193-.75459l-.54778,1.09072c-.05651-.017-.11285-.035-.17053-.04815-.05775-.01311-.116-.02123-.17317-.03051l-.021-1.2188a.84029.84029,0,1,0-1.68033.02911L14.168,9.61861a2.5845,2.5845,0,0,0-1.34561,2.31521,4.86967,4.86967,0,0,0-.94869.58852L11.623,10.93972a.84052.84052,0,0,0-1.66043.26245l.37437,2.36688a.84135.84135,0,0,0,.26456.48628,4.81108,4.81108,0,0,0-.303.70114L9.715,14.62364,9.61,14.35275a.84031.84031,0,0,0-1.56725.60678l.26581.68756a.84014.84014,0,0,0,.59734.5161l1.1242.256a5.58519,5.58519,0,0,0,.06119.82967l-.00476-.00008a.84056.84056,0,0,0-.67093.3629L8.05582,19.58231a.84032.84032,0,1,0,1.38338.95438l1.117-1.61844.0572-.00133a4.72621,4.72621,0,0,0,2.572,2.42182.83207.83207,0,0,0,.09553.02794.81789.81789,0,0,0,.09755.016,4.7382,4.7382,0,0,0,3.39743-1.09337l.13033.06633.192,1.87943a.84062.84062,0,0,0,1.67253-.17092l-.23834-2.33449a.84061.84061,0,0,0-.45484-.66336l-.11706-.05962a5.45315,5.45315,0,0,0,.394-.69271l1.1242.2559a.83984.83984,0,0,0,.76045-.20595l.5388-.50439A.84024.84024,0,0,0,20.81727,16.67156Zm-6.318-4.769a.938.938,0,0,1,.00827-.11816l.00125-.00827a.92587.92587,0,0,1,.02271-.11355l.0011-.00406a.93083.93083,0,0,1,.1507-.31163l.00554-.00733a.93926.93926,0,0,1,.34627-.28228l.00336-.00156a.92777.92777,0,0,1,.31966-.08538l.03356-.00172c.01467-.0007.029-.00218.04378-.00218l.03145.00156.037.00187c.02919.00211.05783.0057.08624.01038l.02139.00328a.92668.92668,0,0,1,.11136.02833l.0146.0053q.04354.01488.085.03372l.02248.009.02263.0128c.0146.00757.02864.01585.04269.02412a.90919.90919,0,0,1,.18465.14157l.00687.0071a.93855.93855,0,0,1,.14953.19885l.014.02591a.9244.9244,0,0,1,.08116.21993l.008.03652c.00414.02185.00757.04378.01007.066.0025.02115.00367.04277.00476.06431.00047.012.00257.02388.00257.0359l-.00046.0071.00015.00258a.95194.95194,0,0,1-.00765.11441l-.002.01264a.92809.92809,0,0,1-.02068.10559l-.00351.01366a.92859.92859,0,0,1-.08655.21212l-.00585.0096a.92013.92013,0,0,1-.053.08124l-.01374.01834a.91652.91652,0,0,1-.06072.0718l-.009.00983a.935.935,0,0,1-.17193.14032l-.00695.00422a.93436.93436,0,0,1-.08974.04932l-.01085.00523a.93068.93068,0,0,1-.10021.04011l-.00179.00063a.919.919,0,0,1-.11059.02919l-.00367.00062a.9603.9603,0,0,1-.10028.01342l-.03489.00172c-.01428.0007-.02825.00219-.04261.00219l-.03262-.00164-.03606-.0018c-.03059-.00226-.06079-.006-.09053-.01108l-.01709-.00265a.91782.91782,0,0,1-.11324-.029l-.01272-.00461a.91913.91913,0,0,1-.08764-.035l-.02193-.00874-.00016-.00187a.93508.93508,0,0,1-.52382-.83272l-.0007-.00039.00039-.00538ZM17.1072,16.8406A3.66875,3.66875,0,0,1,13.65585,19.72a3.66776,3.66776,0,0,1-1.86351-4.089,3.19129,3.19129,0,0,1,1.59738-2.10145,2.6052,2.6052,0,0,0,3.18718.72486A3.19314,3.19314,0,0,1,17.1072,16.8406Z"/>
    <path class="cls-2" d="M42.22839,35.94387,30.9905,25.24094a2.51,2.51,0,0,0-3.52664.043l-.42616.42616-2.571-2.571a13.15178,13.15178,0,1,0-1.32761,1.32761L25.71,27.03765l-.42616.42616a2.51032,2.51032,0,0,0-.04294,3.52672l10.70293,11.2378a4.41048,4.41048,0,0,0,3.16465,1.37926l.05608.0003a4.44514,4.44514,0,0,0,3.06381-7.664Zm-27.693-10.14276a11.26567,11.26567,0,0,1-7.966-19.23173A11.26567,11.26567,0,1,1,22.50143,22.50145,11.19181,11.19181,0,0,1,14.53539,25.80111ZM40.97817,40.97827a2.57413,2.57413,0,0,1-1.84675.75185,2.5477,2.5477,0,0,1-1.828-.7967L26.60054,29.69554a.64353.64353,0,0,1,.011-.90412l2.18-2.17986a.64355.64355,0,0,1,.90412-.011L40.93355,37.30349a2.56751,2.56751,0,0,1,.04462,3.67478Z"/>
  </g>
</svg>
