<svg id="Layer_1" data-name="Layer 1" xmlns="http://www.w3.org/2000/svg" viewBox="0 0 45 45">
  <defs>
    <style>
      .cls-1, .cls-2 {
        fill: none;
        stroke: #525779;
        stroke-width: 1.5px;
      }

      .cls-1 {
        stroke-linecap: round;
        stroke-linejoin: round;
      }

      .cls-2 {
        stroke-miterlimit: 10;
      }

      .cls-3 {
        fill: #ffce00;
      }
    </style>
  </defs>
  <g>
    <path class="cls-1" d="M41.68915,42.07417c.002-9.39762-7.5406-9.39527-12.88655-13.72831C26.4954,29.809,24.24447,30.76561,22.5,30.76561s-3.9954-.95664-6.3026-2.41975c-5.34595,4.333-12.8885,4.33069-12.88655,13.72831Z"/>
    <path class="cls-2" d="M30.74961,13.37321a1.86279,1.86279,0,0,0,1.86281-1.8628V10.568a1.86279,1.86279,0,0,0-1.86281-1.8628.95436.95436,0,0,1-.88861-1.067c0-2.60263-3.19429-4.71244-7.13465-4.71244s-7.13466,2.10981-7.13466,4.71244a.95436.95436,0,0,1-.88861,1.067,1.86278,1.86278,0,0,0-1.8628,1.8628v.94237a1.86278,1.86278,0,0,0,1.8628,1.8628Z"/>
    <path class="cls-3" d="M29.79678,16.27771c-.63385-.33294-6.55367-.487-7.013-.487-.01259-.00081-3.86535-.00033-5.03479-.00173h-.00654a4.04384,4.04384,0,0,0-3.13685,1.3334,3.39505,3.39505,0,0,0-.831,2.7829,3.21258,3.21258,0,0,0,1.50249,2.30046,3.61782,3.61782,0,0,0,4.03531.016c.04122-.02639.08284-.05241.12449-.07846a4.49921,4.49921,0,0,0,.52185-.36294,4.56408,4.56408,0,0,1,5.63834.14464,3.27155,3.27155,0,0,0,2.33469.91772,4.60207,4.60207,0,0,0,1.03877-.12489,3.33713,3.33713,0,0,0,2.70933-2.774A3.44832,3.44832,0,0,0,29.79678,16.27771ZM18.7569,20.00529c-1.09271.23269-2.087-.08631-2.22083-.71258s.64354-1.32261,1.73628-1.55533,2.087.08631,2.22079.71257S19.84961,19.77256,18.7569,20.00529Zm10.15972-.71258c-.1338.62627-1.12812.94527-2.22083.71258s-1.87007-.92908-1.73624-1.55534,1.12809-.9453,2.2208-.71257S29.05042,18.66645,28.91662,19.29271Z"/>
  </g>
</svg>
