<svg id="Layer_1" data-name="Layer 1" xmlns="http://www.w3.org/2000/svg" viewBox="0 0 45 45">
  <defs>
    <style>
      .cls-1 {
        fill: #ffce00;
      }

      .cls-2, .cls-4 {
        fill: #525779;
      }

      .cls-2, .cls-3 {
        stroke: #525779;
      }

      .cls-2 {
        stroke-miterlimit: 10;
        stroke-width: 0.3px;
      }

      .cls-3 {
        fill: none;
        stroke-linecap: round;
        stroke-linejoin: round;
        stroke-width: 1.5px;
      }
    </style>
  </defs>
  <path class="cls-1" d="M12.44936,26.48729a.35145.35145,0,0,0-.49645-.01651l-.089.08342-.2442-.05559a2.0757,2.0757,0,0,0,.014-.29627.34926.34926,0,0,0,.25251-.16175l.51316-.83669a.35132.35132,0,1,0-.599-.36726l-.35231.57446a2.04023,2.04023,0,0,0-.269-.4331,1.0821,1.0821,0,0,0-.088-1.11521l.27956-.55644a.35132.35132,0,0,0-.62786-.31545l-.229.456c-.02362-.00711-.04718-.01461-.07129-.02013s-.04848-.00887-.07239-.01275l-.00878-.5095a.35127.35127,0,1,0-.70244.01217l.0108.62225a1.08044,1.08044,0,0,0-.56252.96784,2.03554,2.03554,0,0,0-.39658.246l-.10479-.66159a.35137.35137,0,0,0-.69413.10971l.15651.98945a.35171.35171,0,0,0,.11059.20328,2.0127,2.0127,0,0,0-.12665.2931l-.24393-.05553-.04391-.11324a.35128.35128,0,0,0-.65517.25366l.11112.28742a.3512.3512,0,0,0,.24971.21575l.47.107a2.33525,2.33525,0,0,0,.02557.34683l-.002,0a.3514.3514,0,0,0-.28047.15171l-.56842.8238a.35129.35129,0,1,0,.5783.399l.46693-.67657.02391-.00056A1.97569,1.97569,0,0,0,9.259,28.43834a.34687.34687,0,0,0,.03994.01168.33951.33951,0,0,0,.04078.00669,1.98075,1.98075,0,0,0,1.42025-.45707l.05448.02773.08026.78567a.35141.35141,0,0,0,.69918-.07145l-.09964-.9759a.35137.35137,0,0,0-.19013-.27731l-.04894-.02493a2.27931,2.27931,0,0,0,.16472-.28957l.47.107a.3511.3511,0,0,0,.3179-.08609l.22524-.21086A.35125.35125,0,0,0,12.44936,26.48729ZM9.80819,24.49366a.39087.39087,0,0,1,.00346-.0494l.00052-.00345a.38524.38524,0,0,1,.0095-.04747l.00045-.0017a.38935.38935,0,0,1,.063-.13027l.00232-.00307a.39264.39264,0,0,1,.14475-.118l.00141-.00065a.38763.38763,0,0,1,.13363-.03569l.014-.00072.01831-.00091.01314.00065.01547.00078c.0122.00088.02417.00238.036.00434l.00894.00137a.38682.38682,0,0,1,.04655.01184l.0061.00222q.01821.00621.03553.0141l.0094.00375.00946.00535.01785.01008a.37994.37994,0,0,1,.07719.05918l.00287.003a.39233.39233,0,0,1,.06251.08313l.00584.01083a.38694.38694,0,0,1,.03393.09193l.00336.01527.0042.0276.002.02689.00108.015-.00019.003.00006.00108a.39672.39672,0,0,1-.0032.04783l-.00081.00528a.38863.38863,0,0,1-.00865.04414l-.00147.00571a.38776.38776,0,0,1-.03618.08868l-.00244.004a.38559.38559,0,0,1-.02216.034l-.00574.00767a.38468.38468,0,0,1-.02538.03l-.00375.00411a.391.391,0,0,1-.07187.05866l-.00291.00176a.38963.38963,0,0,1-.03752.02062l-.00453.00219a.39078.39078,0,0,1-.04189.01677l-.00075.00026a.38333.38333,0,0,1-.04623.0122l-.00153.00026a.40109.40109,0,0,1-.04193.00561l-.01458.00072-.01781.00091-.01364-.00068-.01507-.00075q-.01918-.00143-.03785-.00463l-.00714-.00111a.384.384,0,0,1-.04734-.01214l-.00532-.00192a.38632.38632,0,0,1-.03664-.01465l-.00916-.00366-.00007-.00078a.39091.39091,0,0,1-.219-.34811l-.00029-.00016.00016-.00225ZM10.89841,26.558a1.53366,1.53366,0,0,1-1.44279,1.20369,1.53325,1.53325,0,0,1-.779-1.70934,1.33408,1.33408,0,0,1,.66777-.87848,1.08907,1.08907,0,0,0,1.33236.303A1.33485,1.33485,0,0,1,10.89841,26.558Z"/>
  <path class="cls-1" d="M37.24152,26.48729a.35145.35145,0,0,0-.49645-.01651l-.089.08342-.2442-.05559a2.07569,2.07569,0,0,0,.014-.29627.34928.34928,0,0,0,.25252-.16175l.51315-.83669a.35132.35132,0,1,0-.599-.36726l-.35231.57446a2.04063,2.04063,0,0,0-.269-.4331,1.08218,1.08218,0,0,0-.088-1.11521l.27956-.55644a.35132.35132,0,0,0-.62786-.31545l-.229.456c-.02362-.00711-.04718-.01461-.07129-.02013s-.04848-.00887-.07239-.01275l-.00878-.5095a.35127.35127,0,1,0-.70244.01217l.0108.62225a1.08044,1.08044,0,0,0-.56252.96784,2.03554,2.03554,0,0,0-.39658.246l-.1048-.66159a.35137.35137,0,0,0-.69412.10971l.1565.98945a.35172.35172,0,0,0,.1106.20328,2.0127,2.0127,0,0,0-.12665.2931l-.24393-.05553-.04392-.11324a.35128.35128,0,0,0-.65517.25366l.11112.28742a.35122.35122,0,0,0,.24971.21575l.47.107a2.33526,2.33526,0,0,0,.02558.34683l-.002,0a.3514.3514,0,0,0-.28047.15171l-.56843.8238a.35129.35129,0,1,0,.57831.399l.46693-.67657.02391-.00056a1.97569,1.97569,0,0,0,1.07521,1.01241.3473.3473,0,0,0,.03993.01168.34016.34016,0,0,0,.04078.00669,1.98076,1.98076,0,0,0,1.42026-.45707l.05448.02773.08026.78567a.35141.35141,0,0,0,.69918-.07145l-.09964-.9759a.35138.35138,0,0,0-.19014-.27731l-.04893-.02493a2.28053,2.28053,0,0,0,.16472-.28957l.47.107a.35109.35109,0,0,0,.31789-.08609l.22524-.21086A.35124.35124,0,0,0,37.24152,26.48729Zm-2.64116-1.99363a.39087.39087,0,0,1,.00346-.0494l.00052-.00345a.38522.38522,0,0,1,.00949-.04747l.00046-.0017a.38916.38916,0,0,1,.063-.13027l.00231-.00307a.39276.39276,0,0,1,.14476-.118l.0014-.00065a.38769.38769,0,0,1,.13363-.03569l.014-.00072.0183-.00091.01315.00065.01547.00078c.0122.00088.02417.00238.03605.00434l.00894.00137a.38778.38778,0,0,1,.04655.01184l.0061.00222q.01821.00621.03553.0141l.0094.00375.00946.00535.01784.01008a.37994.37994,0,0,1,.07719.05918l.00287.003a.392.392,0,0,1,.06251.08313l.00584.01083a.38608.38608,0,0,1,.03393.09193l.00336.01527.00421.0276.002.02689.00108.015-.0002.003.00007.00108a.39877.39877,0,0,1-.0032.04783l-.00082.00528a.38643.38643,0,0,1-.00864.04414l-.00147.00571a.38821.38821,0,0,1-.03618.08868l-.00245.004a.38323.38323,0,0,1-.02215.034l-.00574.00767a.38468.38468,0,0,1-.02538.03l-.00375.00411a.39069.39069,0,0,1-.07188.05866l-.0029.00176a.38963.38963,0,0,1-.03752.02062l-.00453.00219a.39161.39161,0,0,1-.04189.01677l-.00075.00026a.38333.38333,0,0,1-.04623.0122l-.00154.00026a.4009.4009,0,0,1-.04192.00561l-.01458.00072-.01782.00091-.01363-.00068-.01508-.00075q-.01917-.00143-.03784-.00463l-.00715-.00111a.38434.38434,0,0,1-.04733-.01214l-.00532-.00192a.38632.38632,0,0,1-.03664-.01465l-.00917-.00366-.00006-.00078a.3909.3909,0,0,1-.219-.34811l-.00029-.00016.00016-.00225ZM35.69058,26.558a1.53366,1.53366,0,0,1-1.4428,1.20369,1.53326,1.53326,0,0,1-.779-1.70934,1.3341,1.3341,0,0,1,.66776-.87848,1.08907,1.08907,0,0,0,1.33236.303A1.33481,1.33481,0,0,1,35.69058,26.558Z"/>
  <g>
    <g>
      <circle class="cls-2" cx="3.58929" cy="19.69355" r="0.26425"/>
      <circle class="cls-2" cx="5.18929" cy="19.69355" r="0.26425"/>
      <circle class="cls-2" cx="6.78929" cy="19.69355" r="0.26425"/>
    </g>
    <line class="cls-3" x1="1.83759" y1="21.30162" x2="18.44859" y2="21.30162"/>
    <rect class="cls-3" x="1.74309" y="18.01744" width="16.8" height="12.57039" rx="1.46017"/>
    <g>
      <circle class="cls-2" cx="28.33392" cy="19.69355" r="0.26425"/>
      <circle class="cls-2" cx="29.93392" cy="19.69355" r="0.26425"/>
      <circle class="cls-2" cx="31.53392" cy="19.69355" r="0.26425"/>
    </g>
    <line class="cls-3" x1="26.58223" y1="21.30162" x2="43.19323" y2="21.30162"/>
    <rect class="cls-3" x="26.48773" y="18.01744" width="16.8" height="12.57039" rx="1.46017"/>
  </g>
  <path class="cls-4" d="M22.99994,22.31047a.47209.47209,0,0,1,.673.02693l1.48065,1.64219a.49672.49672,0,0,1,.13461.323.55932.55932,0,0,1-.1346.323L23.6461,26.26788a.47628.47628,0,0,1-.69994-.64611l.78068-.86147H20.22718a.48459.48459,0,0,1,0-.96917h3.49965l-.78071-.86147A.43435.43435,0,0,1,22.99994,22.31047Z"/>
</svg>
