<svg id="Layer_1" data-name="Layer 1" xmlns="http://www.w3.org/2000/svg" viewBox="0 0 45 45">
  <defs>
    <style>
      .cls-1 {
        fill: #ffce00;
      }

      .cls-2 {
        fill: none;
        stroke: #525779;
        stroke-linecap: round;
        stroke-linejoin: round;
        stroke-width: 1.7818px;
      }

      .cls-3 {
        fill: #525779;
      }
    </style>
  </defs>
  <g>
    <path class="cls-1" d="M37.42217,10.111a.86785.86785,0,0,1-.39583-.095c-1.8912-.95176-7.24287-3.42352-9.2801-3.42352-2.2237,0-2.97842.74417-3.59592,2.11991a.87956.87956,0,0,1-1.60445-.7213c.73537-1.63963,1.87361-3.15787,5.20037-3.15787,2.82186,0,9.33816,3.24231,10.07177,3.61352a.87938.87938,0,0,1-.39584,1.66426Z"/>
    <path class="cls-1" d="M37.42217,15.38873a.88.88,0,0,1-.87963-.87963V12.74984a.87963.87963,0,1,1,1.75926,0V14.5091A.88.88,0,0,1,37.42217,15.38873Z"/>
    <path class="cls-1" d="M37.42217,6.59243a.88.88,0,0,1-.87963-.87963V3.95354a.87963.87963,0,0,1,1.75926,0V5.7128A.88.88,0,0,1,37.42217,6.59243Z"/>
    <path class="cls-1" d="M41.15356,13.84234a.88358.88358,0,0,1-.62278-.25685L39.287,12.34169a.8795.8795,0,1,1,1.24379-1.2438l1.2438,1.2438a.87875.87875,0,0,1-.621,1.50065Z"/>
    <path class="cls-1" d="M39.90977,7.62335A.87875.87875,0,0,1,39.287,6.12271l1.24379-1.2438a.8795.8795,0,1,1,1.2438,1.2438L40.53078,7.3665A.87645.87645,0,0,1,39.90977,7.62335Z"/>
    <path class="cls-1" d="M33.69078,13.84234a.87875.87875,0,0,1-.62278-1.50065l1.2438-1.2438a.8795.8795,0,1,1,1.2438,1.2438l-1.2438,1.2438A.87651.87651,0,0,1,33.69078,13.84234Z"/>
    <path class="cls-2" d="M27.69284,15.6613l1.49005-3.57753a.88055.88055,0,0,0-.3132-1.06259A19.23512,19.23512,0,0,0,17.92184,7.62055a.87969.87969,0,0,0-.83392.6017L15.77013,12.1741a14.9667,14.9667,0,1,0,11.92271,3.4872Z"/>
    <path class="cls-3" d="M17.92184,17.29643a9.68626,9.68626,0,0,0-9.67595,9.676.87963.87963,0,1,1-1.75925,0,11.44835,11.44835,0,0,1,11.4352-11.43514.8796.8796,0,0,1,0,1.75919Z"/>
  </g>
</svg>
